<?xml version="1.0" encoding="UTF-8"?>
<svg width="612px" height="413px" viewBox="0 0 612 413" version="1.1" xmlns="http://www.w3.org/2000/svg" xmlns:xlink="http://www.w3.org/1999/xlink">
    <title>img5</title>
    <defs>
        <linearGradient x1="112.324855%" y1="0%" x2="112.324855%" y2="105.71375%" id="linearGradient-1">
            <stop stop-color="#30F6E5" offset="0%"></stop>
            <stop stop-color="#34C8F4" offset="14.5833%"></stop>
            <stop stop-color="#21BCFF" offset="66.6667%"></stop>
            <stop stop-color="#4021FF" offset="100%"></stop>
        </linearGradient>
        <radialGradient cx="77.4961349%" cy="164.168506%" fx="77.4961349%" fy="164.168506%" r="171.554744%" gradientTransform="translate(0.774961,1.641685),scale(0.426295,1.000000),rotate(-131.133128),translate(-0.774961,-1.641685)" id="radialGradient-2">
            <stop stop-color="#21BCFF" offset="0%"></stop>
            <stop stop-color="#FFFFFF" offset="100%"></stop>
        </radialGradient>
        <path d="M242.872921,169.924097 L252.445696,152.54582 L250.413496,169.924097 L256.455942,169.924097 L276.041619,134.368542 L268.950483,134.368542 L259.377708,151.746819 L261.559721,134.368542 L255.367461,134.368542 L235.781785,169.924097 L242.872921,169.924097 Z M269.040212,169.924097 L277.155064,155.192512 L285.145076,155.192512 L288.666097,148.800502 L280.676084,148.800502 L285.104868,140.760552 L294.393257,140.760552 L297.914278,134.368542 L281.534752,134.368542 L261.949076,169.924097 L269.040212,169.924097 Z M293.609501,169.924097 L309.674156,140.760552 L315.666666,140.760552 L319.187686,134.368542 L300.111531,134.368542 L296.590511,140.760552 L302.58302,140.760552 L286.518364,169.924097 L293.609501,169.924097 Z" id="path-3"></path>
        <filter x="-10.8%" y="-16.9%" width="121.6%" height="150.6%" filterUnits="objectBoundingBox" id="filter-4">
            <feOffset dx="0" dy="3" in="SourceAlpha" result="shadowOffsetOuter1"></feOffset>
            <feGaussianBlur stdDeviation="2.5" in="shadowOffsetOuter1" result="shadowBlurOuter1"></feGaussianBlur>
            <feColorMatrix values="0 0 0 0 0   0 0 0 0 0   0 0 0 0 0  0 0 0 0.287764969 0" type="matrix" in="shadowBlurOuter1"></feColorMatrix>
        </filter>
        <linearGradient x1="50%" y1="93.9110135%" x2="56.2104868%" y2="0%" id="linearGradient-5">
            <stop stop-color="#000CDB" offset="0%"></stop>
            <stop stop-color="#33C7F4" stop-opacity="0" offset="100%"></stop>
        </linearGradient>
        <linearGradient x1="0%" y1="54.9320058%" x2="82.8185477%" y2="50%" id="linearGradient-6">
            <stop stop-color="#000000" stop-opacity="0" offset="0%"></stop>
            <stop stop-color="#0006FF" offset="100%"></stop>
        </linearGradient>
        <filter x="-132.6%" y="-139.3%" width="365.3%" height="353.7%" filterUnits="objectBoundingBox" id="filter-7">
            <feGaussianBlur stdDeviation="24.192" in="SourceGraphic"></feGaussianBlur>
        </filter>
        <linearGradient x1="40.3827374%" y1="7.68236961%" x2="40.3827374%" y2="76.3805634%" id="linearGradient-8">
            <stop stop-color="#4021FF" offset="0%"></stop>
            <stop stop-color="#21BCFF" offset="33.3333%"></stop>
            <stop stop-color="#33C8F5" stop-opacity="0" offset="100%"></stop>
        </linearGradient>
        <linearGradient x1="35.3098527%" y1="13.8523433%" x2="50%" y2="82.9172672%" id="linearGradient-9">
            <stop stop-color="#FFFFFF" stop-opacity="0" offset="0%"></stop>
            <stop stop-color="#FFFFFF" offset="52.6042%"></stop>
            <stop stop-color="#FFFFFF" stop-opacity="0" offset="100%"></stop>
        </linearGradient>
        <linearGradient x1="33.3803553%" y1="13.8523433%" x2="50%" y2="82.9172672%" id="linearGradient-10">
            <stop stop-color="#FFFFFF" stop-opacity="0" offset="0%"></stop>
            <stop stop-color="#FFFFFF" offset="52.6042%"></stop>
            <stop stop-color="#FFFFFF" stop-opacity="0" offset="100%"></stop>
        </linearGradient>
        <linearGradient x1="17.7975275%" y1="50.0070317%" x2="93.8903634%" y2="50%" id="linearGradient-11">
            <stop stop-color="#FFFFFF" stop-opacity="0" offset="0%"></stop>
            <stop stop-color="#FFFFFF" offset="52.6042%"></stop>
            <stop stop-color="#FFFFFF" stop-opacity="0" offset="100%"></stop>
        </linearGradient>
        <filter x="-93.8%" y="-93.8%" width="287.5%" height="287.5%" filterUnits="objectBoundingBox" id="filter-12">
            <feGaussianBlur stdDeviation="10" in="SourceGraphic"></feGaussianBlur>
        </filter>
        <linearGradient x1="96.1963068%" y1="43.3633994%" x2="10.4521445%" y2="60.3820424%" id="linearGradient-13">
            <stop stop-color="#4021FF" offset="0%"></stop>
            <stop stop-color="#21BCFF" offset="33.3333%"></stop>
            <stop stop-color="#33DAEE" stop-opacity="0" offset="100%"></stop>
        </linearGradient>
        <filter x="-81.8%" y="-81.8%" width="263.6%" height="263.6%" filterUnits="objectBoundingBox" id="filter-14">
            <feGaussianBlur stdDeviation="9" in="SourceGraphic"></feGaussianBlur>
        </filter>
        <linearGradient x1="43.7237532%" y1="38.3709282%" x2="50.0001037%" y2="105.714711%" id="linearGradient-15">
            <stop stop-color="#34CDF2" stop-opacity="0" offset="0%"></stop>
            <stop stop-color="#21BCFF" offset="66.6667%"></stop>
            <stop stop-color="#4021FF" offset="100%"></stop>
        </linearGradient>
        <linearGradient x1="48.0656515%" y1="24.4072052%" x2="50.0001037%" y2="105.714711%" id="linearGradient-16">
            <stop stop-color="#34CDF2" stop-opacity="0" offset="0%"></stop>
            <stop stop-color="#21BCFF" offset="66.6667%"></stop>
            <stop stop-color="#4021FF" offset="100%"></stop>
        </linearGradient>
        <filter x="-75.1%" y="-81.8%" width="250.2%" height="263.6%" filterUnits="objectBoundingBox" id="filter-17">
            <feGaussianBlur stdDeviation="9" in="SourceGraphic"></feGaussianBlur>
        </filter>
        <linearGradient x1="96.1963068%" y1="43.3633994%" x2="10.4521445%" y2="60.3820424%" id="linearGradient-18">
            <stop stop-color="#4021FF" offset="0%"></stop>
            <stop stop-color="#21BCFF" offset="33.3333%"></stop>
            <stop stop-color="#33DAEE" stop-opacity="0" offset="100%"></stop>
        </linearGradient>
        <filter x="-100.0%" y="-100.0%" width="300.0%" height="300.0%" filterUnits="objectBoundingBox" id="filter-19">
            <feGaussianBlur stdDeviation="11" in="SourceGraphic"></feGaussianBlur>
        </filter>
        <linearGradient x1="40.3827374%" y1="7.68236961%" x2="40.3827374%" y2="76.3805634%" id="linearGradient-20">
            <stop stop-color="#4021FF" offset="0%"></stop>
            <stop stop-color="#21BCFF" offset="33.3333%"></stop>
            <stop stop-color="#33C8F5" stop-opacity="0" offset="100%"></stop>
        </linearGradient>
        <filter x="-75.0%" y="-75.0%" width="250.0%" height="250.0%" filterUnits="objectBoundingBox" id="filter-21">
            <feGaussianBlur stdDeviation="9" in="SourceGraphic"></feGaussianBlur>
        </filter>
        <filter x="-92.3%" y="-92.3%" width="284.6%" height="284.6%" filterUnits="objectBoundingBox" id="filter-22">
            <feGaussianBlur stdDeviation="8" in="SourceGraphic"></feGaussianBlur>
        </filter>
        <linearGradient x1="100%" y1="24.6127165%" x2="50%" y2="64.6092038%" id="linearGradient-23">
            <stop stop-color="#FFFFFF" offset="0%"></stop>
            <stop stop-color="#FFD600" offset="51.5625%"></stop>
            <stop stop-color="#FFAE28" offset="79.6875%"></stop>
            <stop stop-color="#FF5C28" offset="100%"></stop>
        </linearGradient>
    </defs>
    <g id="2.0" stroke="none" stroke-width="1" fill="none" fill-rule="evenodd">
        <g id="sherpax网站" transform="translate(-629.000000, -2599.000000)">
            <g id="img5" transform="translate(629.312575, 2624.193090)">
                <g id="编组">
                    <polygon id="矩形" fill="url(#linearGradient-1)" fill-rule="nonzero" points="254.079677 116.301923 338.404596 116.301923 296.894058 187.990716 212.569139 187.990716"></polygon>
                    <g id="NFT" fill-rule="nonzero">
                        <use fill="black" fill-opacity="1" filter="url(#filter-4)" xlink:href="#path-3"></use>
                        <use fill="url(#radialGradient-2)" xlink:href="#path-3"></use>
                    </g>
                    <polygon id="矩形" fill="url(#linearGradient-5)" points="379.915134 188.613131 338.404596 116.301923 296.894058 187.990716 338.404596 260.301923"></polygon>
                    <polygon id="矩形" fill="url(#linearGradient-6)" points="254.079677 260.301923 338.404596 260.301923 296.894058 187.990716 212.569139 187.990716"></polygon>
                    <polygon id="星形" fill="#FBEC9B" filter="url(#filter-7)" points="296.713558 201.323949 274.158748 201.323949 285.436153 181.790911 296.713558 162.257873 307.990963 181.790911 319.268367 201.323949"></polygon>
                    <path d="M456.375652,132.428186 L420.050464,194.284881 L420.050464,194.284881 L398.342521,181.241433 L434.791752,119.969579 C437.332977,115.697733 435.93003,110.174647 431.658184,107.633423 C430.26616,106.80534 428.676465,106.368262 427.056758,106.368286 L377.911561,106.369004 L377.911561,106.369004 L370.600803,93.7063984 L377.911561,81.043793 L427.172796,81.2112191 C445.950369,81.2750392 461.120863,96.5490062 461.057043,115.326579 C461.036603,121.340828 459.421208,127.242032 456.375652,132.428186 Z" id="路径" fill="url(#linearGradient-8)" fill-rule="nonzero"></path>
                    <line x1="297.914278" y1="188.301923" x2="338.404596" y2="263.002356" id="路径" stroke="url(#linearGradient-9)" stroke-width="0.8" opacity="0.400000006" stroke-linecap="round"></line>
                    <line x1="296.894058" y1="188.301923" x2="338.404596" y2="116.301923" id="路径" stroke="url(#linearGradient-10)" stroke-width="0.8" stroke-linecap="round"></line>
                    <line x1="296.894058" y1="188.301923" x2="212.569139" y2="188.301923" id="路径" stroke="url(#linearGradient-11)" stroke-width="0.8" stroke-linecap="round"></line>
                    <circle id="椭圆形" fill="#3E2CFF" cx="379.092132" cy="93.4994952" r="12.4557022"></circle>
                    <circle id="椭圆形" fill="#FFFFFF" filter="url(#filter-12)" cx="379.092132" cy="93.4994952" r="16"></circle>
                    <path d="M158.315133,337.721715 L158.315133,316.790763 L294.442656,316.790274 C336.935228,316.790121 376.311408,294.493217 398.170299,258.054122 L437.411025,192.63925 L437.411025,192.63925 L451.246096,192.63925 L458.163631,204.620773 L422.104319,266.352754 C396.2872,310.550543 348.948752,337.721715 297.763126,337.721715 L158.315133,337.721715 L158.315133,337.721715 Z" id="路径" fill="url(#linearGradient-13)" fill-rule="nonzero"></path>
                    <circle id="椭圆形" fill="#4021FF" cx="449.192664" cy="196.906672" r="13"></circle>
                    <circle id="椭圆形" fill="#FFFFFF" filter="url(#filter-14)" cx="449.192664" cy="196.906672" r="16.5"></circle>
                    <path d="M61.4007487,255.372551 L145.489946,111.169004 L145.489946,111.169004 L161.827938,120.601748 L81.2098446,258.604992 C66.0551023,284.547104 74.7999931,317.862687 100.742105,333.017429 C109.068711,337.881627 118.538667,340.445036 128.181943,340.44508 L219.980347,340.445503 L219.980347,340.445503 L219.980347,359.310991 L121.110469,359.310991 C82.936547,359.310991 51.9904689,328.364913 51.9904689,290.190991 C51.9904689,277.956558 55.2377878,265.941339 61.4007487,255.372551 Z" id="路径" fill="url(#linearGradient-15)" fill-rule="nonzero"></path>
                    <path d="M429.791162,176.442043 L528.721248,6.78803547 L528.721248,6.78803547 L546.734931,17.1882405 L450.835651,181.350047 C436.3495,206.147654 444.708587,237.993432 469.506194,252.479582 C477.465449,257.129183 486.517613,259.579501 495.735451,259.579543 L610.85169,259.580072 L610.85169,259.580072 L610.85169,280.380482 L489.500882,280.380482 C451.32696,280.380482 420.380882,249.434404 420.380882,211.260482 C420.380882,199.02605 423.628201,187.01083 429.791162,176.442043 Z" id="路径" fill="url(#linearGradient-16)" fill-rule="nonzero" transform="translate(490.016693, 143.584259) scale(-1, -1) translate(-490.016693, -143.584259) "></path>
                    <circle id="椭圆形" fill="#4B70FF" fill-rule="nonzero" cx="371.839" cy="16.9831981" r="11.1951627"></circle>
                    <polygon id="多边形" fill="#FFFFFF" filter="url(#filter-17)" transform="translate(372.642777, 17.179422) scale(-1, -1) rotate(-630.000000) translate(-372.642777, -17.179422) " points="372.642777 0.679421612 386.932196 8.92942161 386.932196 25.4294216 372.642777 33.6794216 358.353358 25.4294216 358.353358 8.92942161"></polygon>
                    <path d="M138.699968,183.708022 L138.699968,162.997396 L272.673586,162.996914 C315.166159,162.996762 354.542339,140.699858 376.40123,104.260763 L414.858009,40.1527412 L414.858009,40.1527412 L428.547448,40.1527412 L435.392167,52.0081427 L400.151253,112.339061 C374.334134,156.536851 326.995686,183.708022 275.81006,183.708022 L138.699968,183.708022 L138.699968,183.708022 Z" id="路径" fill="url(#linearGradient-18)" fill-rule="nonzero" transform="translate(287.046068, 111.930382) scale(-1, -1) translate(-287.046068, -111.930382) "></path>
                    <circle id="椭圆形" fill="#3F27FF" cx="147.077339" cy="180.13925" r="12.5"></circle>
                    <circle id="椭圆形" fill="#FFFFFF" filter="url(#filter-19)" cx="147.077339" cy="180.13925" r="16.5"></circle>
                    <path d="M194.337195,222.254264 L151.212755,295.502356 L151.212755,295.502356 L126.994384,280.950491 L166.801003,214.226141 C171.045337,207.111735 168.718684,197.903656 161.604278,193.659322 C159.280474,192.27298 156.624933,191.541054 153.919012,191.541094 L107.849661,191.541767 L107.849661,191.541767 L99.6934454,177.414787 L107.849661,163.287807 L160.861797,163.467982 C182.400778,163.541187 199.802227,181.061326 199.729022,202.600307 C199.705525,209.513724 197.844712,216.296645 194.337195,222.254264 Z" id="路径" fill="url(#linearGradient-20)" fill-rule="nonzero" transform="translate(164.252398, 229.395082) rotate(-180.000000) translate(-164.252398, -229.395082) "></path>
                    <circle id="椭圆形" fill="#3F27FF" cx="222.223986" cy="281.002356" r="14.5"></circle>
                    <circle id="椭圆形" fill="#FFFFFF" filter="url(#filter-21)" cx="222.223986" cy="281.002356" r="18"></circle>
                </g>
                <circle id="椭圆形" fill="#384BFF" cx="223" cy="350" r="10"></circle>
                <circle id="椭圆形" fill="#FFFFFF" filter="url(#filter-22)" cx="223" cy="350" r="13"></circle>
                <g id="编组-2" transform="translate(344.199929, 250.349347)">
                    <rect id="矩形" fill="url(#linearGradient-23)" x="1.42108547e-13" y="3.48165941e-13" width="131.767742" height="71.2258065" rx="16"></rect>
                    <path d="M35.9253074,50.3642844 L35.9253074,20.861522 L30.5385671,20.861522 L24.5302798,26.0825165 L24.5302798,31.8836215 L30.5385671,26.662627 L30.5385671,50.3642844 L35.9253074,50.3642844 Z M51.7540367,50.3642844 L51.7540367,44.2316878 L45.5800036,44.2316878 L45.5800036,50.3642844 L51.7540367,50.3642844 Z M65.8424345,50.6129032 C67.140777,50.6129032 68.3631527,50.4195331 69.5095616,50.0327927 C70.6559704,49.6460524 71.6573516,49.0797541 72.5137052,48.3338977 C73.3700588,47.5880413 74.0468544,46.6695331 74.544092,45.5783728 C75.0413295,44.4872126 75.2899483,43.2234005 75.2899483,41.7869364 C75.2899483,40.8753342 75.172545,40.0742292 74.9377384,39.3836215 C74.7029317,38.6930137 74.3990643,38.0783728 74.0261362,37.5396988 C73.653208,37.0010248 73.2526555,36.5383176 72.8244787,36.1515773 C72.3963019,35.7648369 71.9750312,35.4333452 71.5606665,35.1571021 C71.9197826,34.9084833 72.2996168,34.5908038 72.7001693,34.2040634 C73.1007218,33.8173231 73.4598378,33.3753342 73.7775174,32.8780966 C74.0951969,32.380859 74.3576279,31.8145607 74.5648102,31.1792016 C74.7719925,30.5438425 74.8755837,29.8256104 74.8755837,29.0245054 C74.8755837,27.7261629 74.633871,26.5590358 74.1504456,25.5231242 C73.6670201,24.4872126 73.0178489,23.6032347 72.2029317,22.8711905 C71.3880146,22.1391463 70.4349759,21.5797541 69.3438157,21.1930137 C68.2526555,20.8062734 67.0855284,20.6129032 65.8424345,20.6129032 C64.5993406,20.6129032 63.4322135,20.8062734 62.3410533,21.1930137 C61.2498931,21.5797541 60.2899483,22.1391463 59.461219,22.8711905 C58.6324898,23.6032347 57.9764124,24.4872126 57.492987,25.5231242 C57.0095616,26.5590358 56.7678489,27.7261629 56.7678489,29.0245054 C56.7678489,29.8256104 56.87144,30.5438425 57.0786223,31.1792016 C57.2858047,31.8145607 57.5482356,32.380859 57.8659152,32.8780966 C58.1835947,33.3753342 58.5358047,33.8173231 58.922545,34.2040634 C59.3092853,34.5908038 59.6960257,34.9084833 60.082766,35.1571021 C59.6684014,35.4333452 59.2471306,35.7648369 58.8189538,36.1515773 C58.390777,36.5383176 57.9971306,37.0010248 57.6380146,37.5396988 C57.2788986,38.0783728 56.9819373,38.6930137 56.7471306,39.3836215 C56.512324,40.0742292 56.3949207,40.8753342 56.3949207,41.7869364 C56.3949207,43.2234005 56.6435395,44.4872126 57.140777,45.5783728 C57.6380146,46.6695331 58.3148102,47.5880413 59.1711638,48.3338977 C60.0275174,49.0797541 61.0288986,49.6460524 62.1753074,50.0327927 C63.3217163,50.4195331 64.544092,50.6129032 65.8424345,50.6129032 Z M65.8424345,32.9195331 C64.7927107,32.9195331 63.9156389,32.5673231 63.211219,31.8629032 C62.5067991,31.1584833 62.1545892,30.2675994 62.1545892,29.1902513 C62.1545892,28.1405275 62.5067991,27.2565496 63.211219,26.5383176 C63.9156389,25.8200855 64.7927107,25.4609695 65.8424345,25.4609695 C66.8921583,25.4609695 67.762324,25.8200855 68.4529317,26.5383176 C69.1435395,27.2565496 69.4888433,28.1405275 69.4888433,29.1902513 C69.4888433,30.2675994 69.1435395,31.1584833 68.4529317,31.8629032 C67.762324,32.5673231 66.8921583,32.9195331 65.8424345,32.9195331 Z M65.8424345,45.7648369 C64.6822135,45.7648369 63.7153627,45.3780966 62.941882,44.6046159 C62.1684014,43.8311353 61.781661,42.8642844 61.781661,41.7040634 C61.781661,40.5438425 62.1684014,39.5700855 62.941882,38.7827927 C63.7153627,37.9954999 64.6822135,37.6018535 65.8424345,37.6018535 C67.0026555,37.6018535 67.9695063,37.9954999 68.742987,38.7827927 C69.5164677,39.5700855 69.903208,40.5438425 69.903208,41.7040634 C69.903208,42.8642844 69.5164677,43.8311353 68.742987,44.6046159 C67.9695063,45.3780966 67.0026555,45.7648369 65.8424345,45.7648369 Z M86.2706113,50.3642844 L86.2706113,33.1681518 L91.9474069,44.3559971 L95.8424345,44.3559971 L101.477794,33.1681518 L101.477794,50.3642844 L107.237462,50.3642844 L107.237462,20.861522 L101.560667,20.861522 L93.8949207,36.8145607 L86.1877384,20.861522 L80.5109428,20.861522 L80.5109428,50.3642844 L86.2706113,50.3642844 Z" id="1.8M" fill="#FFFFFF" fill-rule="nonzero"></path>
                </g>
            </g>
        </g>
    </g>
</svg>