<?xml version="1.0" encoding="UTF-8"?>
<svg width="151px" height="33px" viewBox="0 0 151 33" version="1.1" xmlns="http://www.w3.org/2000/svg" xmlns:xlink="http://www.w3.org/1999/xlink">
    <title>sherpax</title>
    <g id="2.0" stroke="none" stroke-width="1" fill="none" fill-rule="evenodd">
        <g id="sherpax网站" transform="translate(-715.000000, -924.000000)" fill="#333333" fill-rule="nonzero">
            <g id="sherpax" transform="translate(715.250088, 924.000000)">
                <path d="M-5.73454328e-14,22.6531316 L3.10266999,18.9396361 C4.90885271,20.4282704 7.13775905,21.439571 9.45363723,21.439571 C11.7695154,21.439571 12.8091324,20.5496265 12.8091324,19.3825857 C12.8091324,17.6613522 11.3933116,17.246719 9.12799847,16.2981191 L6.01521548,14.9672477 C3.36763072,13.9559471 0.95871289,11.9333461 0.95871289,8.45244972 C0.95871289,4.4942195 4.52253591,1.332872 9.71455277,1.332872 C12.6610588,1.32714118 15.4988146,2.44546148 17.6492166,4.45983528 L14.924773,7.86994062 C13.2439916,6.65638 11.7533346,6.00307987 9.41925302,6.00307987 C7.63734151,6.00307987 6.42984869,6.74132925 6.42984869,8.13692396 C6.42984869,9.5729707 8.03174871,10.098847 10.3233557,10.9584524 L13.2439916,12.2043746 C16.3729554,13.3774832 18.3490366,15.3292932 18.3490366,18.6989466 C18.3490366,22.671335 15.0157901,26.1117794 9.10170465,26.1117794 C5.74756496,26.1072919 2.51067146,24.8772723 -5.73454328e-14,22.6531316 L-5.73454328e-14,22.6531316 Z" id="路径"></path>
                <path d="M20.8125646,2.5486859e-15 L26.2108868,2.5486859e-15 L26.2108868,6.27006321 L25.895361,9.7732082 L26.0308753,9.7732082 C27.3779276,8.37356828 29.3358054,7.05685501 32.060249,7.05685501 C36.1438805,7.05685501 37.9541084,9.86624785 37.9541084,14.453507 L37.9541084,25.6850105 L32.5578088,25.6850105 L32.5578088,15.1351235 C32.5578088,12.7080023 31.8600115,11.640069 29.8899981,11.640069 C28.4499061,11.640069 27.4628768,12.3055047 26.2108868,13.5332235 L26.2108868,25.6688297 L20.8125646,25.6688297 L20.8125646,2.5486859e-15 Z" id="路径"></path>
                <path d="M40.207286,16.5671251 C40.207286,10.6146102 44.7985903,7.0426968 49.6690136,7.0426968 C55.2797089,7.0426968 58.2327064,10.8290059 58.2327064,15.7722429 C58.2200933,16.5819031 58.1443532,17.3893466 58.0061751,18.1872285 L44.2079908,18.1872285 L44.2079908,14.5627274 L54.3574028,14.5627274 L53.5079104,15.5922314 C53.5079104,12.6715955 52.2397395,11.1425091 49.8490251,11.1425091 C47.1832369,11.1425091 45.4357096,12.9486918 45.4357096,16.5651025 C45.4357096,20.3372534 47.4886497,21.9957862 51.0261789,21.9957862 C52.6766213,21.9957862 54.0985099,21.5487914 55.7125455,20.7336832 L57.4985022,23.9819805 C55.335894,25.3397486 52.8412142,26.0759066 50.2879295,26.1097576 C44.6185788,26.1117794 40.207286,22.6126796 40.207286,16.5671251 Z" id="路径"></path>
                <path d="M62.4397165,7.48362383 L66.8752806,7.48362383 L67.3000268,11.4620801 L67.4274507,11.4620801 C69.2174526,8.49492434 71.8994216,7.0426968 74.8018541,7.0426968 C76.008124,7.00244613 77.2063189,7.2536022 78.294886,7.77487838 L77.2006589,12.3095499 C76.0599119,11.9596399 75.3216625,11.7755832 73.980678,11.7755832 C71.7275005,11.7755832 69.4095997,12.9466692 67.8380387,16.2111473 L67.8380387,25.6708523 L62.4397165,25.6708523 L62.4397165,7.48362383 Z" id="路径"></path>
                <path d="M80.8716798,7.48362383 L85.2688144,7.48362383 L85.6571538,9.33430377 L85.7946907,9.33430377 C87.2590538,7.99534189 89.2614288,7.0447194 91.2132388,7.0447194 C95.7519556,7.0447194 98.4946026,10.6854013 98.4946026,16.2960965 C98.4946026,22.5297529 94.6819996,26.113802 90.6064585,26.113802 C89.0086037,26.113802 87.4309749,25.4018464 86.1365102,24.1478337 L86.0090864,24.1478337 L86.2598889,27.1028539 L86.2598889,32.4283624 L80.8716798,32.4283624 L80.8716798,7.48362383 Z M92.9789695,16.3486842 C92.9789695,13.0862287 91.9090136,11.4620801 89.6234744,11.4620801 C88.4705918,11.4620801 87.3986133,11.9515495 86.2679793,13.1509519 L86.2679793,20.4889485 C87.1239956,21.2603028 88.2325751,21.6919366 89.3848075,21.7025091 C91.3730243,21.6923961 92.9789695,20.1107221 92.9789695,16.3466616 L92.9789695,16.3486842 Z" id="形状"></path>
                <path d="M100.492932,20.6305305 C100.492932,16.5549895 103.862586,14.4798008 112.456618,13.9559471 C112.266493,12.3378663 111.040797,11.3265658 108.599517,11.3265658 C106.845922,11.3265658 105.100418,12.0021145 103.055568,13.0295959 L101.130052,9.50622486 C103.652235,8.06815553 106.552645,7.046742 109.641157,7.046742 C114.756315,7.046742 117.85494,9.70443976 117.85494,15.2787282 L117.85494,25.6748975 L113.445669,25.6748975 L113.05733,23.6260027 L112.919793,23.6260027 C111.083271,25.0074392 108.807845,26.1158246 106.473764,26.1158246 C102.79263,26.1117794 100.492932,23.6866807 100.492932,20.6305305 Z M112.456618,20.1976939 L112.456618,17.21638 C107.104815,17.4853859 105.668768,18.6443363 105.668768,20.1976939 C105.668768,21.3667573 106.655798,21.9351082 108.178816,21.9351082 C109.79892,21.9351082 111.170243,21.1928136 112.456618,20.1956713 L112.456618,20.1976939 Z" id="形状"></path>
                <path d="M138.256916,13.6606474 L134.757817,9.94310668 L128.255154,3.03390155 C128.118656,2.88343287 127.926317,2.79567391 127.72321,2.79118943 L121.796989,2.79118943 C121.119418,2.79118943 120.785689,3.66293047 121.258977,4.17262593 L130.453722,13.9559471 C130.601311,14.1174291 130.601311,14.3648387 130.453722,14.5263206 L121.263022,24.2914384 C120.781643,24.7991113 121.12144,25.6708523 121.801034,25.6708523 L127.72321,25.6708523 C127.927623,25.6700813 128.122514,25.5843588 128.261222,25.434208 L134.761862,18.5229803 L138.260962,14.8054396 C138.555549,14.4800946 138.553796,13.9839023 138.256916,13.6606474 L138.256916,13.6606474 Z" id="路径"></path>
                <path d="M138.455131,9.94310668 L140.297721,11.7856962 C140.534622,12.0223028 140.918402,12.0223028 141.155304,11.7856962 L148.768374,4.17262593 C149.000027,3.94123101 149.069369,3.59302322 148.944035,3.29053717 C148.8187,2.98805112 148.523402,2.79093176 148.195978,2.79118917 L141.903666,2.79118917 C141.68874,2.79155668 141.482793,2.87742863 141.33127,3.02985635 L136.865367,7.49373683 C136.751117,7.60759018 136.686899,7.76224634 136.686899,7.92353955 C136.686899,8.08483277 136.751117,8.23948892 136.865367,8.35334227 L138.455131,9.94310668 Z" id="路径"></path>
                <path d="M141.155304,16.6824133 C140.918402,16.4458067 140.534622,16.4458067 140.297721,16.6824133 L138.455131,18.5229803 L136.865367,20.1147673 C136.62876,20.3516685 136.62876,20.7354489 136.865367,20.9723501 L141.329247,25.434208 C141.480606,25.5853989 141.685686,25.6704855 141.899621,25.6708523 L148.193955,25.6708523 C148.520124,25.6694829 148.813571,25.4723843 148.938205,25.1709634 C149.06284,24.8695426 148.994283,24.5227592 148.764329,24.2914384 L141.155304,16.6824133 Z" id="路径"></path>
            </g>
        </g>
    </g>
</svg>