<?xml version="1.0" encoding="UTF-8"?>
<svg width="24px" height="25px" viewBox="0 0 24 25" version="1.1" xmlns="http://www.w3.org/2000/svg" xmlns:xlink="http://www.w3.org/1999/xlink">
    <title>邮件@2x</title>
    <g id="2.0" stroke="none" stroke-width="1" fill="none" fill-rule="evenodd">
        <g id="sherpax网站" transform="translate(-1042.000000, -3892.000000)" fill="#000000" fill-rule="nonzero">
            <g id="编组-30" transform="translate(0.000000, 3864.313317)">
                <g id="编组-25" transform="translate(802.000000, 28.000000)">
                    <g id="邮件" transform="translate(240.000000, 0.000000)">
                        <path d="M12,0 C5.372583,0 0,5.372583 0,12 C0,18.627417 5.372583,24 12,24 C18.627417,24 24,18.627417 24,12 C24,8.81740212 22.7357179,5.76515517 20.4852814,3.51471863 C18.2348448,1.26428208 15.1825979,0 12,0 Z M19.0267686,6.95793499 L12.0057361,12.8661568 L4.98470362,6.95793499 L19.0267686,6.95793499 Z M4.93307838,7.45697897 L9.625239,11.4321224 L4.93307838,17.0305927 L4.93307838,7.45697897 Z M5.50669216,17.0305927 L9.98087953,11.74761 L12.0344168,13.4684513 L14.0936902,11.74761 L18.5678776,17.082218 L5.50669216,17.0305927 Z M19.0898662,17.0305927 L14.4034417,11.4378585 L19.0611855,7.45697897 L19.0898662,17.0305927 Z" id="形状"></path>
                    </g>
                </g>
            </g>
        </g>
    </g>
</svg>