<?xml version="1.0" encoding="UTF-8"?>
<svg width="54px" height="54px" viewBox="0 0 54 54" version="1.1" xmlns="http://www.w3.org/2000/svg" xmlns:xlink="http://www.w3.org/1999/xlink">
    <title>icon_lighterpaper</title>
    <defs>
        <linearGradient x1="54.1529125%" y1="112.324035%" x2="40.2917019%" y2="0.15557626%" id="linearGradient-1">
            <stop stop-color="#367DFF" offset="0%"></stop>
            <stop stop-color="#31FFA1" offset="100%"></stop>
        </linearGradient>
    </defs>
    <g id="2.0" stroke="none" stroke-width="1" fill="none" fill-rule="evenodd">
        <g id="菜单栏" transform="translate(-290.000000, -641.000000)" fill-rule="nonzero">
            <g id="icon_lighterpaper" transform="translate(290.000000, 641.000000)">
                <g id="编组-5" fill="url(#linearGradient-1)">
                    <circle id="椭圆形" cx="27" cy="27" r="27"></circle>
                </g>
                <g id="白皮书" transform="translate(11.000000, 11.000000)" fill="#FFFFFF">
                    <path d="M5.33334996,26.2933743 L5.33334996,24.3022595 L26.6667185,24.3022595 L26.6667185,26.2933743 L5.33334996,26.2933743 Z M30.0089412,2.73778444 L32.000056,2.73778444 L32.000056,25.0000372 C32.000056,28.8660305 28.8660492,32.0000372 25.000056,32.0000372 L5.65336908,32.0000372 L5.65336908,32.0000372 C2.5311152,32.0000372 1.85029065e-05,29.4689499 1.85029065e-05,26.3466869 L1.85029065e-05,5.65331908 C1.85029065e-05,2.5310663 2.5311027,-3.03964072e-05 5.65336883,-3.03964072e-05 L26.2045177,-3.03964072e-05 L26.2045177,16.8888689 C26.2045177,19.0980079 24.4136567,20.8888689 22.2045177,20.8888689 L5.51114992,20.8888689 L5.51114992,20.8888689 C3.54746935,20.888869 1.95558312,22.4807489 1.95558312,24.4444355 L1.95558312,26.3644378 C1.95558343,28.3870313 3.59521941,30.0266613 5.61780613,30.0266613 L24.9799053,30.0266613 C27.7387861,30.0266613 29.9763076,27.7920524 29.9799011,25.0331739 L30.0089412,2.73778444 L30.0089412,2.73778444 Z M24.2133719,1.99111794 L24.2133719,14.8977939 C24.2133719,17.1069329 22.4225109,18.8977939 20.2133719,18.8977939 L5.33334996,18.8977939 L5.33334996,18.8977939 C4.08645472,18.9296733 2.88809708,19.3876851 1.93778345,20.1955735 L1.93778345,5.65333783 C1.93778345,3.63035703 3.57741661,1.990727 5.60000647,1.990727 C5.61791446,1.990727 5.63582213,1.990727 5.65372809,1.99112104 L24.2133719,1.99111794 Z" id="形状"></path>
                </g>
            </g>
        </g>
    </g>
</svg>