<?xml version="1.0" encoding="UTF-8"?>
<svg width="54px" height="54px" viewBox="0 0 54 54" version="1.1" xmlns="http://www.w3.org/2000/svg" xmlns:xlink="http://www.w3.org/1999/xlink">
    <title>icon_wallet</title>
    <defs>
        <linearGradient x1="71.9794379%" y1="100%" x2="21.6326678%" y2="0%" id="linearGradient-1">
            <stop stop-color="#DA0671" offset="0%"></stop>
            <stop stop-color="#FF9FA9" offset="100%"></stop>
        </linearGradient>
    </defs>
    <g id="2.0" stroke="none" stroke-width="1" fill="none" fill-rule="evenodd">
        <g id="菜单栏" transform="translate(-290.000000, -481.000000)" fill-rule="nonzero">
            <g id="icon_wallet" transform="translate(290.000000, 481.000000)">
                <g id="编组-5" fill="url(#linearGradient-1)">
                    <circle id="椭圆形" cx="27" cy="27" r="27"></circle>
                </g>
                <g id="理财" transform="translate(11.500000, 12.000000)" fill="#FFFFFF">
                    <path d="M30.7508068,26.9015725 C30.7508068,27.330292 30.6774733,27.7308042 30.5308065,28.1031123 C30.3841398,28.4754204 30.1754215,28.8026014 29.904652,29.0846519 C29.6338824,29.3667034 29.3179857,29.5867027 28.9569586,29.7446527 C28.5959314,29.9026017 28.2010613,29.981576 27.7723418,29.981576 L3.20000551,29.981576 C2.77128596,29.981576 2.36513165,29.9026017 1.98154256,29.7446527 C1.59795347,29.5867037 1.25949154,29.3667024 0.966156761,29.0846519 C0.672822976,28.8026004 0.441540766,28.4754204 0.272309799,28.1031123 C0.103078833,27.7308042 0.0184633502,27.330292 0.0184633502,26.9015725 L0.0184633502,10.012322 C0.0184633502,9.15488623 0.317437947,8.42719308 0.915387471,7.82924256 C1.51333799,7.23129205 2.24103114,6.93231844 3.09846693,6.93231844 L27.6708032,6.93231844 C28.528239,6.93231844 29.2559322,7.23129304 29.8538827,7.82924256 C30.4518332,8.42719308 30.7508068,9.15488623 30.7508068,10.012322 L30.7508068,14.6154043 L23.0677209,14.6154043 C22.2102851,14.6154043 21.482592,14.9087381 20.8846415,15.4954053 C20.286691,16.0820716 19.9877174,16.8041259 19.9877174,17.6615617 C20.0102815,18.2482279 20.1343841,18.7672051 20.3600255,19.2184866 C20.5405384,19.6020757 20.8395143,19.9518219 21.2569496,20.2677186 C21.6743849,20.5836163 22.2779775,20.7415653 23.0677209,20.7415653 L30.7508068,20.7415653 L30.7508068,26.9015725 L30.7508068,26.9015725 Z M26.1477245,5.37539356 L10.7815528,5.37539356 C12.0000158,4.74359685 13.1507863,4.13436537 14.2338645,3.54769912 C15.1815579,3.05128719 16.1179704,2.55487855 17.0430985,2.05846662 C17.9682267,1.56205468 18.6902811,1.1784656 19.2092549,0.907696049 C19.9989983,0.4789765 20.7041295,0.281541474 21.324642,0.315387668 C21.9451544,0.349233861 22.4697704,0.456413583 22.89849,0.636926503 C23.3949019,0.88513181 23.8236182,1.21231179 24.1846453,1.61846611 L26.1477245,5.37539356 Z M21.5446422,17.6615617 C21.5446422,17.2328421 21.691309,16.8718183 21.9846428,16.5784835 C22.2779765,16.2851497 22.6390014,16.138483 23.0677209,16.138483 C23.4964405,16.138483 23.8574643,16.2851497 24.1507991,16.5784835 C24.4441329,16.8718173 24.5907996,17.2328421 24.5907996,17.6615617 C24.5907996,18.0902812 24.4441329,18.4569472 24.1507991,18.761563 C23.8574653,19.0661787 23.4964405,19.2184866 23.0677209,19.2184866 C22.6390014,19.2184866 22.2779775,19.0661787 21.9846428,18.761563 C21.691309,18.4569472 21.5446422,18.0902812 21.5446422,17.6615617 Z" id="形状"></path>
                </g>
            </g>
        </g>
    </g>
</svg>