<?xml version="1.0" encoding="UTF-8"?>
<svg width="54px" height="54px" viewBox="0 0 54 54" version="1.1" xmlns="http://www.w3.org/2000/svg" xmlns:xlink="http://www.w3.org/1999/xlink">
    <title>icon_lighterpaper</title>
    <defs>
        <linearGradient x1="54.1529125%" y1="112.324035%" x2="40.2917019%" y2="0.15557626%" id="linearGradient-1">
            <stop stop-color="#367DFF" offset="0%"></stop>
            <stop stop-color="#31FFA1" offset="100%"></stop>
        </linearGradient>
    </defs>
    <g id="2.0" stroke="none" stroke-width="1" fill="none" fill-rule="evenodd">
        <g id="菜单栏" transform="translate(-290.000000, -481.000000)" fill-rule="nonzero">
            <g id="icon_lighterpaper" transform="translate(290.000000, 481.000000)">
                <g id="编组-5" fill="url(#linearGradient-1)">
                    <circle id="椭圆形" cx="27" cy="27" r="27"></circle>
                </g>
                <g id="编组" transform="translate(9.000000, 12.000000)" fill="#FFFFFF">
                    <path d="M6.53179377,19.8738008 C6.72150909,19.8738008 6.89679976,19.9750574 6.99158358,20.1393983 L6.99158358,20.1393983 L12.223766,29.203826 C12.3185326,29.3679663 12.3185845,29.5701835 12.2239022,29.7343724 C12.1292199,29.8985613 11.9541726,29.9998046 11.7646397,29.9999988 L11.7646397,29.9999988 L1.29762088,29.9999988 C1.10808801,29.9998046 0.933040637,29.8985613 0.838358344,29.7343724 C0.743676052,29.5701835 0.743727967,29.3679663 0.838494552,29.203826 L0.838494552,29.203826 L6.07200396,20.1393983 C6.16678778,19.9750574 6.34207845,19.8738008 6.53179377,19.8738008 Z M24.8298358,12.236056 C25.076294,12.132811 25.3610782,12.2288759 25.4946402,12.4603114 L25.4946402,12.4603114 L35.1615053,29.203826 C35.2563905,29.3681716 35.256316,29.5706714 35.1613099,29.7349472 C35.0663037,29.8992229 34.8908219,30.0002788 34.701052,29.9999994 L34.701052,29.9999994 L15.4243808,29.9999994 C15.2349452,29.9998045 15.0599722,29.8986641 14.9652545,29.7346079 L14.9652545,29.7346079 L9.04836339,19.4812288 C8.97217562,19.3489748 8.95660785,19.190324 9.00563486,19.0457832 C9.05466188,18.9012424 9.16353831,18.7848019 9.30446565,18.7261916 L9.30446565,18.7261916 Z M18.0059712,1.20792265e-13 C18.1956865,1.20792265e-13 18.3709772,0.101256635 18.465761,0.265597531 L18.465761,0.265597531 L23.8558511,9.60337788 C23.932111,9.7354606 23.9478683,9.89396532 23.8991052,10.0384768 C23.8503421,10.1829884 23.7417712,10.2995405 23.6010758,10.3584151 L23.6010758,10.3584151 L9.39204466,16.2978644 C9.18207615,16.3850098 8.93992397,16.3287646 8.7898621,16.1579942 C8.63980024,15.9872238 8.61515211,15.7398503 8.7285673,15.5428272 L8.7285673,15.5428272 L17.5461814,0.265597531 C17.6409652,0.101256635 17.8162559,1.20792265e-13 18.0059712,1.20792265e-13 Z" id="形状结合"></path>
                </g>
            </g>
        </g>
    </g>
</svg>