<?xml version="1.0" encoding="UTF-8"?>
<svg width="54px" height="54px" viewBox="0 0 54 54" version="1.1" xmlns="http://www.w3.org/2000/svg" xmlns:xlink="http://www.w3.org/1999/xlink">
    <title>icon_chainx</title>
    <defs>
        <linearGradient x1="119.512669%" y1="-14.6387306%" x2="23.8191524%" y2="100%" id="linearGradient-1">
            <stop stop-color="#FFFFFF" offset="0%"></stop>
            <stop stop-color="#FFD600" offset="51.5625%"></stop>
            <stop stop-color="#FFAE28" offset="79.6875%"></stop>
            <stop stop-color="#FF5C28" offset="100%"></stop>
        </linearGradient>
    </defs>
    <g id="2.0" stroke="none" stroke-width="1" fill="none" fill-rule="evenodd">
        <g id="菜单栏" transform="translate(-290.000000, -161.000000)">
            <g id="编组-8" transform="translate(290.000000, 161.000000)">
                <circle id="椭圆形" fill="url(#linearGradient-1)" cx="27" cy="27" r="27"></circle>
                <g id="PCX_PB" transform="translate(10.500000, 11.000000)" fill="#FFFFFF" fill-rule="nonzero">
                    <path d="M25.1239669,15.8677686 L27.9933884,13.0036364 L25.8115702,10.8244628 C25.7097653,10.7287425 25.5510612,10.7287425 25.4492562,10.8244628 L23.1378512,13.1358678 C22.9532325,13.3210367 22.6610147,13.343515 22.4502479,13.1887603 L18.7371901,9.4677686 C18.5789282,9.26018017 18.5957746,8.96817602 18.7768595,8.78016529 L23.3256198,4.23140496 C24.5162457,3.04580743 26.4361764,3.0293576 27.6469421,4.19438017 C28.2367268,4.78323165 28.5681429,5.58244592 28.5681429,6.41586777 C28.5681429,7.24928961 28.2367268,8.04850389 27.6469421,8.63735537 L26.7371901,9.54446281 L28.9190083,11.7236364 C29.0208132,11.8193567 29.1795174,11.8193567 29.2813223,11.7236364 L30.4793388,10.5256198 C31.8575077,9.16103253 32.411691,7.16959367 31.9365289,5.2892562 C31.0135537,1.75867769 28.2631405,-1.07448908e-05 25.5047934,-1.07448908e-05 C23.802437,-0.0031184698 22.1691024,0.672678491 20.9666116,1.87768595 L16.0555372,6.79140496 L13.191405,3.9246281 L10.8429752,6.28628099 L13.368595,8.8092562 C13.5476951,8.99930342 13.567625,9.2893936 13.4161983,9.50214876 L9.71371901,13.1808264 C9.5044052,13.3600479 9.19256066,13.3485407 8.99702479,13.1543802 L4.42975207,8.59768595 C3.24447342,7.40796234 3.22802077,5.48887871 4.39272727,4.27900826 C4.98123292,3.68857319 5.78057678,3.35670754 6.61421488,3.35670754 C7.44785297,3.35670754 8.24719683,3.68857319 8.83570248,4.27900826 L9.56033058,5.02479339 C9.66213554,5.12051374 9.82083967,5.12051374 9.92264463,5.02479339 L12.1018182,2.84297521 L11.1444628,1.88033058 C8.62800835,-0.569431617 4.60995489,-0.541867826 2.12734635,1.94218787 C-0.35526218,4.42624357 -0.380484443,8.44431241 2.0707438,10.9593388 L6.97917355,15.8677686 L4.29487603,18.5547107 C4.19915568,18.6565157 4.19915568,18.8152198 4.29487603,18.9170248 L6.47404959,21.0935537 L9.33818182,18.2294215 L13.6965289,22.585124 L8.78545455,27.5041322 C7.59482872,28.6897298 5.67489801,28.7061796 4.46413223,27.541157 C3.87609672,26.950552 3.54705687,26.1503507 3.54953729,25.3169277 C3.55201772,24.4835048 3.8858148,23.6852762 4.47735537,23.0981818 L5.20198347,22.3735537 C5.29770382,22.2717488 5.29770382,22.1130446 5.20198347,22.0112397 L3.02280992,19.8347107 L1.63966942,21.2099174 C0.250203407,22.5766459 -0.306937925,24.5795337 0.177190083,26.467438 C1.11603306,29.9795041 3.85322314,31.7355372 6.61157025,31.7355372 C8.31424953,31.7376623 9.94752996,31.060936 11.1497521,29.8552066 L16.0555372,24.9467769 L18.922314,27.8109091 L21.2813223,25.4519008 L18.6895868,22.8601653 C18.5475324,22.7155456 18.5383804,22.4867435 18.6684298,22.3312397 L22.5057851,18.4806612 C22.6606208,18.3498963 22.8893963,18.3579034 23.0347107,18.4991736 L27.6813223,23.1404959 C28.8680073,24.3296311 28.8844698,26.2498673 27.7183471,27.4591736 C27.1298415,28.0496086 26.3304976,28.3814743 25.4968595,28.3814743 C24.6632214,28.3814743 23.8638775,28.0496086 23.2753719,27.4591736 L22.3709091,26.5520661 L20.0119008,28.9110744 L21.1094215,30.0112397 C22.823067,31.7518687 25.4094088,32.303261 27.6839669,31.4128926 C30.513719,30.2624793 31.9153719,27.7950413 31.9153719,25.3302479 C31.9189019,23.6270334 31.2430959,21.992725 30.037686,20.7894215 L25.1239669,15.8677686 Z M19.3798347,16.4178512 C19.1809046,16.7485502 18.9299732,17.0450243 18.6366942,17.2958678 L17.4360331,18.4965289 C17.1837597,18.7891046 16.8875536,19.0407014 16.5580165,19.242314 C16.2384768,19.3904229 15.869953,19.3904229 15.5504132,19.242314 C15.2203911,19.0413721 14.9240866,18.7896918 14.6723967,18.4965289 L13.4717355,17.2958678 C13.1784565,17.0450243 12.9275252,16.7485502 12.728595,16.4178512 C12.5779176,16.0988827 12.5779176,15.7292164 12.728595,15.4102479 C12.9301687,15.0853405 13.1808542,14.7936175 13.4717355,14.5454545 L14.6723967,13.3447934 C14.9229488,13.0475496 15.2193515,12.7922148 15.5504132,12.5884298 C15.869953,12.4403209 16.2384768,12.4403209 16.5580165,12.5884298 C16.8876165,12.788889 17.1838631,13.0396279 17.4360331,13.3315702 L18.6366942,14.5454545 C18.9286366,14.7976245 19.1793754,15.0938712 19.3798347,15.4234711 C19.5263811,15.7387332 19.5263811,16.1025891 19.3798347,16.4178512 Z" id="形状"></path>
                </g>
            </g>
        </g>
    </g>
</svg>