<?xml version="1.0" encoding="UTF-8"?>
<svg width="54px" height="55px" viewBox="0 0 54 55" version="1.1" xmlns="http://www.w3.org/2000/svg" xmlns:xlink="http://www.w3.org/1999/xlink">
    <title>icon_crowdloan</title>
    <defs>
        <linearGradient x1="90.6807955%" y1="3.73618808%" x2="50%" y2="100%" id="linearGradient-1">
            <stop stop-color="#AE04CA" offset="0%"></stop>
            <stop stop-color="#E00666" offset="100%"></stop>
        </linearGradient>
    </defs>
    <g id="2.0" stroke="none" stroke-width="1" fill="none" fill-rule="evenodd">
        <g id="菜单栏" transform="translate(-290.000000, -321.000000)" fill-rule="nonzero">
            <g id="icon_crowdloan" transform="translate(290.000000, 321.500000)">
                <g id="编组-5" fill="url(#linearGradient-1)">
                    <circle id="椭圆形" cx="27" cy="27" r="27"></circle>
                </g>
                <path d="M47.9853739,14.1024082 C47.0984015,13.3139883 46.1128766,12.7226734 44.9302468,12.5255684 C43.4519594,12.3284634 41.9736721,13.3139883 40.9881472,14.0038557 C40.0026224,14.6937231 38.0315726,16.4676679 37.2431527,17.1575353 C36.4547328,17.8474028 34.483683,18.2416127 31.2314509,20.2126625 C27.9792188,22.1837123 15.3645002,30.2650163 15.3645002,30.2650163 L18.6167324,30.2650163 L3.93241157,37.8535579 L5.4106989,37.8535579 L3.34109664,39.4303977 C4.5237265,39.7260552 5.70635636,39.5289502 6.79043374,38.9376353 L6.79043374,39.4303977 C6.79043374,39.4303977 24.2342242,32.5317235 27.5850088,34.3056683 L25.5154065,34.8969833 C25.7125115,34.8969833 28.9647436,35.0940882 28.9647436,35.0940882 C29.1618486,36.4738231 29.9502685,37.7550054 31.1328984,38.4448729 C33.1039482,39.7260552 33.2025006,40.5144751 33.2025006,40.5144751 C33.2025006,40.5144751 32.2169758,40.9086851 32.2169758,41.5 C34.089473,40.9086851 36.0605228,40.9086851 37.8344676,41.5 C37.8344676,41.5 37.7359151,40.9086851 36.3561803,40.5144751 C34.9764454,39.9231602 33.7938156,39.0361878 32.9068432,37.7550054 C32.1184233,36.6709281 31.8227658,35.2911932 32.3155283,34.0100109 C32.8082907,32.7288285 34.483683,32.0389611 37.9330201,30.2650163 C41.9736721,28.1954141 42.959197,26.6185742 43.4519594,25.3373919 C43.9447219,24.0562095 44.9302468,21.6909498 45.3244567,20.50832 C45.7186667,19.4242426 46.4085341,18.5372702 47.2955065,17.7488503 C48.3795839,17.1575353 49.5622137,16.6647729 50.6462911,16.270563 C50.8433961,16.3691154 48.6752413,14.5951706 47.9853739,14.1024082 Z" id="路径" fill="#FFFFFF"></path>
            </g>
        </g>
    </g>
</svg>