<?xml version="1.0" encoding="UTF-8"?>
<svg width="54px" height="55px" viewBox="0 0 54 55" version="1.1" xmlns="http://www.w3.org/2000/svg" xmlns:xlink="http://www.w3.org/1999/xlink">
    <title>icon_scan</title>
    <defs>
        <linearGradient x1="16.3210268%" y1="0%" x2="69.5940936%" y2="77.8869629%" id="linearGradient-1">
            <stop stop-color="#30F6E5" offset="0%"></stop>
            <stop stop-color="#2E7AFF" offset="100%"></stop>
        </linearGradient>
    </defs>
    <g id="2.0" stroke="none" stroke-width="1" fill="none" fill-rule="evenodd">
        <g id="菜单栏" transform="translate(-290.000000, -321.000000)" fill-rule="nonzero">
            <g id="icon_scan" transform="translate(290.000000, 321.500000)">
                <circle id="椭圆形" fill="url(#linearGradient-1)" cx="27" cy="27" r="27"></circle>
                <path d="M12.0124479,23.4407025 L12.0124479,21.2171993 L41.9768016,21.2171993 L41.9768016,15.8730268 C41.9768016,14.6530117 40.9877838,13.6639939 39.7677687,13.6639939 L14.2211278,13.6639939 C13.0011126,13.6639939 12.0120949,14.6530117 12.0120949,15.8730268 L12.0120949,39.6639939 C12.0120949,41.8731329 13.8029559,43.6639939 16.0120949,43.6639939 L37.9768016,43.6639939 C40.1859406,43.6639939 41.9768016,41.8731329 41.9768016,39.6639939 L41.9768016,23.4407022 L41.9768016,23.4407022 L12.0124479,23.4407025 Z M27.7428512,18.0502953 C27.7428512,19.0670081 26.9186444,19.8912149 25.9019316,19.8912149 C24.8852189,19.8912149 24.0610121,19.0670081 24.0610121,18.0502953 C24.0610121,17.0335828 24.8852189,16.2093758 25.9019316,16.2093758 C26.9186444,16.2093758 27.7428512,17.0335826 27.7428512,18.0502953 Z M22.9711425,18.0502953 C22.9711425,19.0670081 22.1469357,19.8912149 21.130223,19.8912149 C20.1135102,19.8912149 19.2893035,19.0670081 19.2893035,18.0502953 C19.2893035,17.0335828 20.1135102,16.2093758 21.130223,16.2093758 C22.1469357,16.2093758 22.9711425,17.0335826 22.9711425,18.0502953 Z M18.1994339,18.0502953 C18.1994339,19.0670081 17.3752271,19.8912149 16.3585144,19.8912149 C15.3418016,19.8912149 14.5175948,19.0670081 14.5175948,18.0502953 C14.5175948,17.0337204 15.3415863,16.2095701 16.3581614,16.2093758 C17.3752271,16.2093758 18.1994339,17.0335826 18.1994339,18.0502953 Z" id="形状" fill="#FFFFFF"></path>
            </g>
        </g>
    </g>
</svg>