<?xml version="1.0" encoding="UTF-8"?>
<svg width="108px" height="88px" viewBox="0 0 108 88" version="1.1" xmlns="http://www.w3.org/2000/svg" xmlns:xlink="http://www.w3.org/1999/xlink">
    <title>icon_smart</title>
    <defs>
        <linearGradient x1="7.74862941%" y1="54.1802427%" x2="95.4305729%" y2="48.2316456%" id="linearGradient-1">
            <stop stop-color="#FFFFFF" offset="0%"></stop>
            <stop stop-color="#FFD600" offset="51.5625%"></stop>
            <stop stop-color="#FFAE28" offset="79.6875%"></stop>
            <stop stop-color="#FF5C28" offset="100%"></stop>
        </linearGradient>
        <radialGradient cx="50%" cy="50%" fx="50%" fy="50%" r="71.8419182%" gradientTransform="translate(0.500000,0.500000),scale(0.969231,1.000000),rotate(44.104800),translate(-0.500000,-0.500000)" id="radialGradient-2">
            <stop stop-color="#FBFF26" offset="0%"></stop>
            <stop stop-color="#FFFFFF" stop-opacity="0" offset="100%"></stop>
        </radialGradient>
        <radialGradient cx="50%" cy="50%" fx="50%" fy="50%" r="71.8603095%" gradientTransform="translate(0.500000,0.500000),scale(0.968747,1.000000),rotate(44.090600),translate(-0.500000,-0.500000)" id="radialGradient-3">
            <stop stop-color="#E1FF26" offset="0%"></stop>
            <stop stop-color="#FFFFFF" stop-opacity="0" offset="100%"></stop>
        </radialGradient>
    </defs>
    <g id="2.0" stroke="none" stroke-width="1" fill="none" fill-rule="evenodd">
        <g id="sherpax网站" transform="translate(-927.000000, -3615.000000)">
            <g id="icon_smart" transform="translate(927.500000, 3615.313317)">
                <path d="M79.8122647,53.2088588 C94.5050294,53.2088588 106.416353,41.2976206 106.416353,26.6044294 C106.416353,11.9112382 94.5050294,0 79.8122647,0 C65.1189029,0 53.20775,11.9112382 53.20775,26.6044294 C53.20775,27.3209853 53.2360676,28.0309735 53.2916794,28.7332853 C53.5400559,31.8710853 52.4896588,35.1107265 49.9094265,36.9135029 C47.0298118,38.9254206 43.1785265,38.5241971 40.1572382,36.7321676 C36.1879912,34.3777941 31.5540471,33.0261382 26.6044294,33.0261382 C11.9112382,33.0261382 0,44.9373765 0,59.6305676 C0,74.3235882 11.9112382,86.2349118 26.6044294,86.2349118 C41.2976206,86.2349118 53.2088588,74.3235882 53.2088588,59.6305676 C53.2088588,59.2392382 53.2004147,58.8498706 53.1836971,58.4626353 C53.0421941,55.1869147 54.1747294,51.8394618 56.8625176,49.9616265 C59.8722059,47.8587853 63.8850382,48.2308382 67.1096676,49.9862765 C70.8843588,52.0412676 75.2115,53.2088588 79.8122647,53.2088588 Z M45.4849647,44.834 C47.8905147,41.3917 53.3853324,35.1482559 56.1201176,37.7121118 C58.8549029,40.2759676 50.1694882,43.5283176 45.4849647,44.834 Z M51.4924853,46.5502882 C52.97285,44.2555353 56.3543353,40.0931824 58.0372735,41.8023912 C59.7201265,43.5116853 54.3752559,45.6798618 51.4924853,46.5502882 Z M58.3588324,45.6918882 C56.3233735,48.7516441 51.6738206,54.3013912 49.3597912,52.0224176 C47.0457618,49.7434441 54.3949588,46.8524853 58.3588324,45.6918882 Z" id="形状" fill="url(#linearGradient-1)"></path>
                <ellipse id="椭圆形" fill="url(#radialGradient-2)" fill-rule="nonzero" cx="26.8627" cy="59.6989735" rx="26.8589471" ry="26.0325324"></ellipse>
                <ellipse id="椭圆形" fill="url(#radialGradient-3)" fill-rule="nonzero" cx="80.1679412" cy="26.2284529" rx="26.4457824" ry="25.6192824"></ellipse>
            </g>
        </g>
    </g>
</svg>