<?xml version="1.0" encoding="UTF-8"?>
<svg width="468px" height="451px" viewBox="0 0 468 451" version="1.1" xmlns="http://www.w3.org/2000/svg" xmlns:xlink="http://www.w3.org/1999/xlink">
    <title>img1</title>
    <defs>
        <linearGradient x1="76.3990253%" y1="35.2546081%" x2="35.1338854%" y2="68.2905488%" id="linearGradient-1">
            <stop stop-color="#000000" stop-opacity="0" offset="0%"></stop>
            <stop stop-color="#790092" offset="100%"></stop>
        </linearGradient>
        <linearGradient x1="100%" y1="47.8228114%" x2="12.2040166%" y2="54.4912421%" id="linearGradient-2">
            <stop stop-color="#AE04CA" stop-opacity="0" offset="0%"></stop>
            <stop stop-color="#E00666" offset="100%"></stop>
        </linearGradient>
        <linearGradient x1="100%" y1="47.8228114%" x2="13.8874871%" y2="52.6986946%" id="linearGradient-3">
            <stop stop-color="#AE04CA" stop-opacity="0" offset="0%"></stop>
            <stop stop-color="#8D0E95" offset="100%"></stop>
        </linearGradient>
        <linearGradient x1="70.6250999%" y1="43.9533285%" x2="77.6298533%" y2="55.1599194%" id="linearGradient-4">
            <stop stop-color="#000000" stop-opacity="0" offset="0%"></stop>
            <stop stop-color="#CC058D" offset="100%"></stop>
        </linearGradient>
        <linearGradient x1="104.328635%" y1="37.5385622%" x2="6.00560071%" y2="61.6871734%" id="linearGradient-5">
            <stop stop-color="#BA007D" stop-opacity="0" offset="0%"></stop>
            <stop stop-color="#48005B" offset="100%"></stop>
        </linearGradient>
        <linearGradient x1="32.7984106%" y1="27.9508807%" x2="50%" y2="83.4947124%" id="linearGradient-6">
            <stop stop-color="#EEEEEE" stop-opacity="0" offset="0%"></stop>
            <stop stop-color="#762CDE" offset="100%"></stop>
        </linearGradient>
        <linearGradient x1="39.7205074%" y1="19.5928574%" x2="57.5367691%" y2="82.1678762%" id="linearGradient-7">
            <stop stop-color="#AE04CA" stop-opacity="0" offset="0%"></stop>
            <stop stop-color="#690046" offset="100%"></stop>
        </linearGradient>
        <linearGradient x1="54.7986439%" y1="29.8902773%" x2="33.8156637%" y2="33.0585988%" id="linearGradient-8">
            <stop stop-color="#B6E9FF" stop-opacity="0" offset="0%"></stop>
            <stop stop-color="#B900BB" offset="100%"></stop>
        </linearGradient>
        <linearGradient x1="50%" y1="17.698866%" x2="0%" y2="179.898974%" id="linearGradient-9">
            <stop stop-color="#7C16D1" offset="0%"></stop>
            <stop stop-color="#E4E4E4" offset="64.3277894%"></stop>
            <stop stop-color="#D5D5D5" offset="100%"></stop>
        </linearGradient>
        <linearGradient x1="43.6188364%" y1="25.7367414%" x2="60.6816521%" y2="76.0856875%" id="linearGradient-10">
            <stop stop-color="#AE04CA" stop-opacity="0" offset="0%"></stop>
            <stop stop-color="#72007B" offset="100%"></stop>
        </linearGradient>
        <linearGradient x1="90.6807955%" y1="33.0761898%" x2="50%" y2="68.2905488%" id="linearGradient-11">
            <stop stop-color="#AE04CA" offset="0%"></stop>
            <stop stop-color="#E00666" offset="100%"></stop>
        </linearGradient>
        <linearGradient x1="67.3276401%" y1="31.7094512%" x2="32.129893%" y2="68.2905488%" id="linearGradient-12">
            <stop stop-color="#FF79CD" offset="0%"></stop>
            <stop stop-color="#FFFFFF" stop-opacity="0.469881925" offset="100%"></stop>
        </linearGradient>
        <linearGradient x1="76.478221%" y1="59.5770613%" x2="33.23266%" y2="38.7381193%" id="linearGradient-13">
            <stop stop-color="#FFFFFF" offset="0%"></stop>
            <stop stop-color="#FFB7E1" offset="100%"></stop>
        </linearGradient>
        <filter x="-32.1%" y="-53.1%" width="164.3%" height="206.2%" filterUnits="objectBoundingBox" id="filter-14">
            <feGaussianBlur stdDeviation="17" in="SourceGraphic"></feGaussianBlur>
        </filter>
        <linearGradient x1="109.724471%" y1="12.3418843%" x2="10.8023213%" y2="74.3436573%" id="linearGradient-15">
            <stop stop-color="#FFFFFF" offset="0%"></stop>
            <stop stop-color="#BA04B1" offset="45.7944495%"></stop>
            <stop stop-color="#E00666" offset="100%"></stop>
        </linearGradient>
        <path d="M215.826085,250.084246 C213.351241,248.616153 210.889287,247.515084 208.453116,247.148061 C205.457725,246.781038 203.658118,248.616153 202.491595,249.900734 C201.325073,251.185315 199.390623,254.488522 198.596913,255.773103 C197.803203,257.057684 194.473673,257.79173 190.315239,261.461961 C186.156805,265.132191 170.467991,280.180137 170.467991,280.180137 L176.619396,280.180137 L156.517809,294.310525 L159.313902,294.310525 L156.993748,297.246709 C159.529569,297.797244 161.567146,297.430221 163.019723,296.329151 L163.517966,297.246709 C163.517966,297.246709 189.536467,284.400902 197.667951,287.704109 L194.351312,288.805179 C194.724125,288.805179 201.074827,289.172202 201.074827,289.172202 C202.842719,291.741363 205.6294,294.127013 208.563814,295.411594 C213.587369,297.797244 214.570964,299.265336 214.570964,299.265336 C214.570964,299.265336 213.105496,299.999382 213.703387,301.100451 C216.647214,299.999382 220.375338,299.999382 224.328541,301.100451 C224.328541,301.100451 223.544243,299.999382 220.535962,299.265336 C217.328384,298.164267 214.194673,296.512663 211.221586,294.127013 C208.634202,292.108386 206.679904,289.539225 206.316504,287.153575 C205.953104,284.767925 208.424469,283.483344 213.155013,280.180137 C218.705048,276.326395 218.974733,273.39021 218.611333,271.00456 C218.247933,268.61891 217.72043,264.214634 217.270273,262.012495 C216.919763,259.993868 217.32777,258.342265 218.208238,256.874172 C219.660815,255.773103 221.399446,254.855545 223.05132,254.121499 C223.523781,254.305011 217.629171,251.001803 215.826085,250.084246 Z" id="path-16"></path>
        <filter x="-10.3%" y="-9.3%" width="120.6%" height="125.9%" filterUnits="objectBoundingBox" id="filter-17">
            <feOffset dx="0" dy="2" in="SourceAlpha" result="shadowOffsetOuter1"></feOffset>
            <feGaussianBlur stdDeviation="2" in="shadowOffsetOuter1" result="shadowBlurOuter1"></feGaussianBlur>
            <feColorMatrix values="0 0 0 0 1   0 0 0 0 0.410358708   0 0 0 0 0.974859147  0 0 0 1 0" type="matrix" in="shadowBlurOuter1"></feColorMatrix>
        </filter>
        <filter x="-41.5%" y="-281.1%" width="183.1%" height="662.2%" filterUnits="objectBoundingBox" id="filter-18">
            <feGaussianBlur stdDeviation="15" in="SourceGraphic"></feGaussianBlur>
        </filter>
        <linearGradient x1="50%" y1="41.607235%" x2="31.8767379%" y2="60.2509205%" id="linearGradient-19">
            <stop stop-color="#EEEEEE" stop-opacity="0" offset="0%"></stop>
            <stop stop-color="#D5D5D5" offset="100%"></stop>
        </linearGradient>
        <linearGradient x1="67.5032976%" y1="30.6568628%" x2="53.8647015%" y2="65.8061792%" id="linearGradient-20">
            <stop stop-color="#A900B8" offset="0%"></stop>
            <stop stop-color="#990063" offset="100%"></stop>
        </linearGradient>
        <linearGradient x1="20.6536715%" y1="100%" x2="93.9594674%" y2="100%" id="linearGradient-21">
            <stop stop-color="#FFFFFF" stop-opacity="0" offset="0%"></stop>
            <stop stop-color="#FFFFFF" offset="52.6042%"></stop>
            <stop stop-color="#FFFFFF" stop-opacity="0" offset="100%"></stop>
        </linearGradient>
        <linearGradient x1="60.5805372%" y1="47.9921772%" x2="46.1188771%" y2="81.6942295%" id="linearGradient-22">
            <stop stop-color="#EEEEEE" stop-opacity="0" offset="0%"></stop>
            <stop stop-color="#D5D5D5" offset="100%"></stop>
        </linearGradient>
        <linearGradient x1="70.6175287%" y1="31.7094512%" x2="33.8862008%" y2="68.2905488%" id="linearGradient-23">
            <stop stop-color="#EEEEEE" stop-opacity="0" offset="0%"></stop>
            <stop stop-color="#000000" offset="100%"></stop>
        </linearGradient>
        <linearGradient x1="91.313438%" y1="51.0444692%" x2="11.8337332%" y2="51.044358%" id="linearGradient-24">
            <stop stop-color="#000000" stop-opacity="0" offset="0%"></stop>
            <stop stop-color="#1141CB" offset="44.4326765%"></stop>
            <stop stop-color="#3A3FFF" offset="100%"></stop>
        </linearGradient>
        <linearGradient x1="58.5398697%" y1="44.9215341%" x2="82.6703122%" y2="56.0466715%" id="linearGradient-25">
            <stop stop-color="#000000" stop-opacity="0" offset="0%"></stop>
            <stop stop-color="#368FFB" offset="100%"></stop>
            <stop stop-color="#2B8BFF" offset="100%"></stop>
        </linearGradient>
        <linearGradient x1="105.924464%" y1="35.8446954%" x2="5.29713781%" y2="64.1553046%" id="linearGradient-26">
            <stop stop-color="#000000" stop-opacity="0" offset="0%"></stop>
            <stop stop-color="#1418C9" offset="100%"></stop>
        </linearGradient>
        <linearGradient x1="70.234623%" y1="41.2780981%" x2="18.6238%" y2="56.3025803%" id="linearGradient-27">
            <stop stop-color="#103AB4" stop-opacity="0.533056299" offset="0%"></stop>
            <stop stop-color="#368FFB" offset="100%"></stop>
            <stop stop-color="#2B8BFF" offset="100%"></stop>
        </linearGradient>
        <linearGradient x1="35.6227518%" y1="0%" x2="59.6692104%" y2="82.796114%" id="linearGradient-28">
            <stop stop-color="#000000" stop-opacity="0" offset="0%"></stop>
            <stop stop-color="#3289FF" stop-opacity="0.764499904" offset="46.9129786%"></stop>
            <stop stop-color="#0006FF" offset="100%"></stop>
        </linearGradient>
        <linearGradient x1="50%" y1="9.06587962%" x2="55.9457293%" y2="70.8568732%" id="linearGradient-29">
            <stop stop-color="#16AAE0" offset="0%"></stop>
            <stop stop-color="#2430D2" offset="100%"></stop>
        </linearGradient>
        <linearGradient x1="58.1687423%" y1="55.344867%" x2="33.8156637%" y2="31.3417074%" id="linearGradient-30">
            <stop stop-color="#B6E9FF" stop-opacity="0" offset="0%"></stop>
            <stop stop-color="#368FFB" offset="100%"></stop>
            <stop stop-color="#2B8BFF" offset="100%"></stop>
        </linearGradient>
        <linearGradient x1="112.324855%" y1="0%" x2="112.324855%" y2="105.71375%" id="linearGradient-31">
            <stop stop-color="#30F6E5" offset="0%"></stop>
            <stop stop-color="#34C8F4" offset="14.5833%"></stop>
            <stop stop-color="#21BCFF" offset="66.6667%"></stop>
            <stop stop-color="#4021FF" offset="100%"></stop>
        </linearGradient>
        <linearGradient x1="50.0056739%" y1="56.761991%" x2="50%" y2="43.238009%" id="linearGradient-32">
            <stop stop-color="#FFFFFF" stop-opacity="0" offset="0%"></stop>
            <stop stop-color="#FFFFFF" offset="48.4375%"></stop>
            <stop stop-color="#FFFFFF" stop-opacity="0" offset="100%"></stop>
        </linearGradient>
        <linearGradient x1="65.8801887%" y1="33.3211551%" x2="34.6522046%" y2="68.2905488%" id="linearGradient-33">
            <stop stop-color="#FFFFFF" offset="0%"></stop>
            <stop stop-color="#FFFFFF" stop-opacity="0.272554838" offset="100%"></stop>
        </linearGradient>
        <radialGradient cx="100%" cy="112.144503%" fx="100%" fy="112.144503%" r="107.111411%" gradientTransform="translate(1.000000,1.121445),scale(0.779749,1.000000),rotate(-144.536399),translate(-1.000000,-1.121445)" id="radialGradient-34">
            <stop stop-color="#21BCFF" offset="0%"></stop>
            <stop stop-color="#FFFFFF" offset="100%"></stop>
        </radialGradient>
        <path d="M287.865418,85.2289677 C288.486446,85.2289677 289.199032,85.5266622 289.734542,86.0098244 L319.28519,112.659239 C319.820368,113.141811 320.097686,113.736329 320.012775,114.219045 C319.927864,114.70176 319.49361,114.999415 318.873446,114.999987 L284.609944,114.999987 C283.989247,114.999415 283.277475,114.70176 282.742507,114.219045 C282.207538,113.736329 281.930559,113.141811 282.015813,112.659239 L286.724323,86.0098244 C286.809358,85.5266622 287.24439,85.2289677 287.865418,85.2289677 Z M339.779231,63.4333113 L394.371256,112.659239 C394.907104,113.142415 395.184396,113.737764 395.098544,114.220735 C395.012692,114.703705 394.576759,115.00081 393.95517,114.999998 L330.85351,114.999998 C330.23313,114.999415 329.521743,114.702062 328.98684,114.219737 L295.565301,84.0748061 C295.134642,83.6859795 294.866242,83.219546 294.828631,82.7945961 C294.791019,82.3696462 294.987836,82.0273113 295.368829,81.8549969 L337.295659,62.7740007 C337.960931,62.4704603 339.024826,62.7528911 339.779231,63.4333113 Z M298.187811,26.8 C298.808839,26.8 299.521426,27.0976945 300.056935,27.5808567 L330.499133,55.0339277 C330.929793,55.4222509 331.198613,55.8882547 331.237048,56.3131186 C331.275484,56.7379824 331.07982,57.0806457 330.699948,57.253737 L292.327376,74.715716 C291.759487,74.9719234 290.889721,74.8065625 290.164449,74.3044976 C289.439176,73.8024326 289.019454,73.0751545 289.120685,72.4959067 L297.046716,27.5808567 C297.131751,27.0976945 297.566783,26.8 298.187811,26.8 Z" id="path-35"></path>
        <filter x="-8.0%" y="-6.8%" width="115.9%" height="120.4%" filterUnits="objectBoundingBox" id="filter-36">
            <feOffset dx="0" dy="3" in="SourceAlpha" result="shadowOffsetOuter1"></feOffset>
            <feGaussianBlur stdDeviation="2.5" in="shadowOffsetOuter1" result="shadowBlurOuter1"></feGaussianBlur>
            <feColorMatrix values="0 0 0 0 0   0 0 0 0 0   0 0 0 0 0  0 0 0 0.287764969 0" type="matrix" in="shadowBlurOuter1"></feColorMatrix>
        </filter>
        <linearGradient x1="2.41688398%" y1="50%" x2="92.1760844%" y2="50%" id="linearGradient-37">
            <stop stop-color="#FFFFFF" stop-opacity="0" offset="0%"></stop>
            <stop stop-color="#FFFFFF" offset="34.0440104%"></stop>
            <stop stop-color="#FFFFFF" stop-opacity="0" offset="100%"></stop>
        </linearGradient>
        <linearGradient x1="19.6818654%" y1="50.0659847%" x2="105.71145%" y2="50.0676692%" id="linearGradient-38">
            <stop stop-color="#FFFFFF" stop-opacity="0" offset="0%"></stop>
            <stop stop-color="#FFFFFF" offset="71.0913836%"></stop>
            <stop stop-color="#FFFFFF" stop-opacity="0" offset="100%"></stop>
        </linearGradient>
        <filter x="-75.1%" y="-46.2%" width="250.2%" height="192.3%" filterUnits="objectBoundingBox" id="filter-39">
            <feGaussianBlur stdDeviation="6" in="SourceGraphic"></feGaussianBlur>
        </filter>
        <linearGradient x1="34%" y1="39.267703%" x2="34%" y2="88.5101273%" id="linearGradient-40">
            <stop stop-color="#FFFFFF" stop-opacity="0" offset="0%"></stop>
            <stop stop-color="#FFFFFF" offset="52.6042%"></stop>
            <stop stop-color="#FFFFFF" stop-opacity="0" offset="100%"></stop>
        </linearGradient>
        <linearGradient x1="14.9436073%" y1="0%" x2="83.1843564%" y2="0%" id="linearGradient-41">
            <stop stop-color="#FFFFFF" stop-opacity="0" offset="0%"></stop>
            <stop stop-color="#FFFFFF" offset="52.6042%"></stop>
            <stop stop-color="#FFFFFF" stop-opacity="0" offset="100%"></stop>
        </linearGradient>
        <linearGradient x1="20.6536715%" y1="100%" x2="75.5080561%" y2="100%" id="linearGradient-42">
            <stop stop-color="#FFFFFF" stop-opacity="0" offset="0%"></stop>
            <stop stop-color="#FFFFFF" offset="52.6042%"></stop>
            <stop stop-color="#FFFFFF" stop-opacity="0" offset="100%"></stop>
        </linearGradient>
        <linearGradient x1="66.0616324%" y1="14.0966037%" x2="35.8013307%" y2="85.1947292%" id="linearGradient-43">
            <stop stop-color="#FFFFFF" offset="0%"></stop>
            <stop stop-color="#FFFFFF" stop-opacity="0" offset="100%"></stop>
        </linearGradient>
        <linearGradient x1="66.0616324%" y1="14.0966037%" x2="35.8013307%" y2="85.1947292%" id="linearGradient-44">
            <stop stop-color="#FFFFFF" offset="0%"></stop>
            <stop stop-color="#FFFFFF" stop-opacity="0" offset="100%"></stop>
        </linearGradient>
        <filter x="-37.3%" y="-22.9%" width="174.6%" height="145.8%" filterUnits="objectBoundingBox" id="filter-45">
            <feGaussianBlur stdDeviation="1" in="SourceGraphic"></feGaussianBlur>
        </filter>
        <linearGradient x1="69.5109493%" y1="6.17869459%" x2="30.4890507%" y2="100%" id="linearGradient-46">
            <stop stop-color="#EEEEEE" offset="0%"></stop>
            <stop stop-color="#D8D8D8" stop-opacity="0" offset="100%"></stop>
        </linearGradient>
        <filter x="-74.9%" y="-44.9%" width="249.9%" height="189.9%" filterUnits="objectBoundingBox" id="filter-47">
            <feGaussianBlur stdDeviation="1" in="SourceGraphic"></feGaussianBlur>
        </filter>
        <filter x="-74.9%" y="-44.9%" width="249.9%" height="189.9%" filterUnits="objectBoundingBox" id="filter-48">
            <feGaussianBlur stdDeviation="1" in="SourceGraphic"></feGaussianBlur>
        </filter>
        <filter x="-62.2%" y="-37.3%" width="224.3%" height="174.6%" filterUnits="objectBoundingBox" id="filter-49">
            <feGaussianBlur stdDeviation="1" in="SourceGraphic"></feGaussianBlur>
        </filter>
        <filter x="-75.1%" y="-46.2%" width="250.2%" height="192.3%" filterUnits="objectBoundingBox" id="filter-50">
            <feGaussianBlur stdDeviation="2" in="SourceGraphic"></feGaussianBlur>
        </filter>
        <filter x="-111.2%" y="-66.7%" width="322.3%" height="233.3%" filterUnits="objectBoundingBox" id="filter-51">
            <feGaussianBlur stdDeviation="2" in="SourceGraphic"></feGaussianBlur>
        </filter>
        <filter x="-62.5%" y="-37.5%" width="225.1%" height="175.0%" filterUnits="objectBoundingBox" id="filter-52">
            <feGaussianBlur stdDeviation="1" in="SourceGraphic"></feGaussianBlur>
        </filter>
        <filter x="-55.6%" y="-33.3%" width="211.2%" height="166.7%" filterUnits="objectBoundingBox" id="filter-53">
            <feGaussianBlur stdDeviation="1" in="SourceGraphic"></feGaussianBlur>
        </filter>
        <filter x="-71.5%" y="-42.9%" width="242.9%" height="185.7%" filterUnits="objectBoundingBox" id="filter-54">
            <feGaussianBlur stdDeviation="1" in="SourceGraphic"></feGaussianBlur>
        </filter>
        <linearGradient x1="65.1137948%" y1="10.1151698%" x2="34.3548065%" y2="88.5942469%" id="linearGradient-55">
            <stop stop-color="#FFFFFF" offset="0%"></stop>
            <stop stop-color="#FFFFFF" stop-opacity="0" offset="100%"></stop>
        </linearGradient>
        <filter x="-99.4%" y="-60.0%" width="298.8%" height="220.0%" filterUnits="objectBoundingBox" id="filter-56">
            <feGaussianBlur stdDeviation="6" in="SourceGraphic"></feGaussianBlur>
        </filter>
        <linearGradient x1="69.5109493%" y1="6.17869459%" x2="30.4890507%" y2="100%" id="linearGradient-57">
            <stop stop-color="#EEEEEE" offset="0%"></stop>
            <stop stop-color="#D8D8D8" stop-opacity="0" offset="100%"></stop>
        </linearGradient>
        <filter x="-83.4%" y="-50.0%" width="266.7%" height="200.0%" filterUnits="objectBoundingBox" id="filter-58">
            <feGaussianBlur stdDeviation="2" in="SourceGraphic"></feGaussianBlur>
        </filter>
        <filter x="-136.4%" y="-81.8%" width="372.8%" height="263.6%" filterUnits="objectBoundingBox" id="filter-59">
            <feGaussianBlur stdDeviation="3" in="SourceGraphic"></feGaussianBlur>
        </filter>
        <filter x="-59.5%" y="-35.7%" width="219.0%" height="171.4%" filterUnits="objectBoundingBox" id="filter-60">
            <feGaussianBlur stdDeviation="1" in="SourceGraphic"></feGaussianBlur>
        </filter>
        <filter x="-83.4%" y="-50.0%" width="266.7%" height="200.0%" filterUnits="objectBoundingBox" id="filter-61">
            <feGaussianBlur stdDeviation="2" in="SourceGraphic"></feGaussianBlur>
        </filter>
        <linearGradient x1="73.2477112%" y1="2.05158255%" x2="33.2352198%" y2="87.901855%" id="linearGradient-62">
            <stop stop-color="#FFFFFF" offset="0%"></stop>
            <stop stop-color="#FFFFFF" stop-opacity="0" offset="100%"></stop>
        </linearGradient>
        <filter x="-47.7%" y="-83.3%" width="195.3%" height="266.7%" filterUnits="objectBoundingBox" id="filter-63">
            <feGaussianBlur stdDeviation="5" in="SourceGraphic"></feGaussianBlur>
        </filter>
        <linearGradient x1="77.5536392%" y1="2.05158255%" x2="30.1300566%" y2="87.901855%" id="linearGradient-64">
            <stop stop-color="#FFFFFF" offset="0%"></stop>
            <stop stop-color="#FFFFFF" stop-opacity="0" offset="100%"></stop>
        </linearGradient>
        <filter x="-85.8%" y="-150.0%" width="271.6%" height="400.0%" filterUnits="objectBoundingBox" id="filter-65">
            <feGaussianBlur stdDeviation="5" in="SourceGraphic"></feGaussianBlur>
        </filter>
        <linearGradient x1="71.6949222%" y1="2.05158255%" x2="34.3549931%" y2="87.901855%" id="linearGradient-66">
            <stop stop-color="#FFFFFF" offset="0%"></stop>
            <stop stop-color="#FFFFFF" stop-opacity="0" offset="100%"></stop>
        </linearGradient>
        <filter x="-88.9%" y="-109.1%" width="277.9%" height="318.2%" filterUnits="objectBoundingBox" id="filter-67">
            <feGaussianBlur stdDeviation="4" in="SourceGraphic"></feGaussianBlur>
        </filter>
        <linearGradient x1="68.116949%" y1="2.05158255%" x2="36.9352012%" y2="87.901855%" id="linearGradient-68">
            <stop stop-color="#FFFFFF" offset="0%"></stop>
            <stop stop-color="#FFFFFF" stop-opacity="0" offset="100%"></stop>
        </linearGradient>
        <filter x="-100.8%" y="-100.0%" width="301.7%" height="300.0%" filterUnits="objectBoundingBox" id="filter-69">
            <feGaussianBlur stdDeviation="6" in="SourceGraphic"></feGaussianBlur>
        </filter>
        <linearGradient x1="72.2717649%" y1="0%" x2="36.7219318%" y2="86.4749127%" id="linearGradient-70">
            <stop stop-color="#FFFFFF" offset="0%"></stop>
            <stop stop-color="#FFFFFF" stop-opacity="0" offset="100%"></stop>
        </linearGradient>
        <filter x="-39.1%" y="-100.0%" width="178.2%" height="300.0%" filterUnits="objectBoundingBox" id="filter-71">
            <feGaussianBlur stdDeviation="1" in="SourceGraphic"></feGaussianBlur>
        </filter>
    </defs>
    <g id="2.0" stroke="none" stroke-width="1" fill="none" fill-rule="evenodd">
        <g id="sherpax网站" transform="translate(-706.000000, -150.000000)">
            <g id="img1" transform="translate(708.812575, 151.000000)">
                <polygon id="路径-26" fill="url(#linearGradient-1)" points="18.1874245 276.613544 101.815611 429.450863 270.884983 429.450863 188.745005 276.613544"></polygon>
                <polygon id="路径-27" fill="url(#linearGradient-2)" fill-rule="nonzero" points="148.615611 354.523776 102.225474 428.850863 271.42866 429.450863 317.684983 354.523776"></polygon>
                <polygon id="路径-27" fill="url(#linearGradient-3)" fill-rule="nonzero" points="148.615611 354.523776 102.225474 428.850863 271.42866 429.450863 317.684983 354.523776"></polygon>
                <polygon id="路径-27" stroke="url(#linearGradient-4)" points="148.615611 354.523776 102.225474 428.850863 271.42866 429.450863 317.684983 354.523776"></polygon>
                <polygon id="路径-27" fill="url(#linearGradient-5)" fill-rule="nonzero" points="181.495077 374.523776 135.104941 448.850863 222.843884 449.450863 268.732053 374.523776"></polygon>
                <polygon id="路径-27" fill="url(#linearGradient-6)" points="177.509124 354.523776 218.857931 429.450863 264.746099 354.523776"></polygon>
                <polygon id="路径-28" fill="url(#linearGradient-7)" fill-rule="nonzero" points="148.615611 354.523776 102.225474 429.450863 19.0325295 276.578085 64.9874245 201.686456"></polygon>
                <polygon id="路径-28" stroke="url(#linearGradient-8)" points="148.615611 354.523776 102.225474 429.450863 19.0325295 276.578085 64.9874245 201.686456"></polygon>
                <polygon id="路径-28" fill="url(#linearGradient-9)" points="135.104941 326.103367 46.9035044 324.576336 92.8583994 249.684708"></polygon>
                <polygon id="路径-28" fill="url(#linearGradient-10)" fill-rule="nonzero" points="102.973671 325.849154 56.5835339 400.776241 14.7722343 324.322122 60.7271293 249.430494"></polygon>
                <path d="M221.44069,221.040611 L319.791119,404.040611 L117.435195,404.040611 L17.3028572,221.040611 L221.44069,221.040611 Z" id="路径-26" stroke="" stroke-width="3"></path>
                <polygon id="路径-26" fill="url(#linearGradient-11)" fill-rule="nonzero" points="64.9874245 201.686456 148.615611 354.523776 317.684983 354.523776 235.545005 201.686456"></polygon>
                <polygon id="路径-26" stroke="url(#linearGradient-12)" fill-rule="nonzero" points="64.9874245 201.686456 148.615611 354.523776 317.684983 354.523776 235.545005 201.686456"></polygon>
                <polygon id="路径-26" fill="url(#linearGradient-13)" points="117.926309 233.705116 166.515115 322.505116 264.746099 322.505116 217.021956 233.705116"></polygon>
                <polygon id="路径-26" fill="#FFFFFF" filter="url(#filter-14)" points="111.974155 220.105116 164.502594 316.105116 270.698253 316.105116 219.104585 220.105116"></polygon>
                <g id="路径" fill-rule="nonzero">
                    <use fill="black" fill-opacity="1" filter="url(#filter-17)" xlink:href="#path-16"></use>
                    <use fill="url(#linearGradient-15)" xlink:href="#path-16"></use>
                </g>
                <polygon id="路径-29" fill="#FFFFFF" filter="url(#filter-18)" points="216.430283 233.705116 117.926309 233.705116 126.982163 218.695786 226.24157 217.695786"></polygon>
                <polygon id="路径-29" fill="url(#linearGradient-19)" opacity="0.695992606" points="216.430283 233.705116 117.926309 233.705116 156.538446 171.819086 254.603546 171.819086"></polygon>
                <path d="M221.121994,227.505116 L272.178228,322.505116 L167.088774,322.505116 L167.087506,322.504116 L264.927296,322.505116 L217.203154,233.705116 L118.499506,233.704116 L115.107506,227.505116 L221.121994,227.505116 Z" id="形状结合" fill="url(#linearGradient-20)" fill-rule="nonzero"></path>
                <line x1="165.577438" y1="323.245825" x2="272.515621" y2="323.245825" id="路径" stroke="url(#linearGradient-21)" stroke-width="1.44" stroke-linecap="round"></line>
                <line x1="110.99334" y1="226.764407" x2="217.931523" y2="226.764407" id="路径" stroke="url(#linearGradient-21)" stroke-width="1.44" stroke-linecap="round"></line>
                <polygon id="路径-31" fill="url(#linearGradient-22)" opacity="0.733859108" points="217.021956 233.705116 264.746099 322.505116 305.014233 255.549805 257.144839 167.422055"></polygon>
                <polygon id="路径-26" fill="url(#linearGradient-23)" points="143.623175 74.9270874 227.251361 227.764407 396.320734 227.764407 314.180756 74.9270874"></polygon>
                <polygon id="路径-27" fill="url(#linearGradient-24)" points="274.051361 152.83732 227.661224 227.164407 396.86441 227.764407 443.120734 152.83732"></polygon>
                <polygon id="路径-27" stroke="url(#linearGradient-25)" points="274.051361 152.83732 227.661224 227.164407 396.86441 227.764407 443.120734 152.83732"></polygon>
                <polygon id="路径-27" fill="url(#linearGradient-26)" opacity="0.444379534" points="321.557483 153.893533 275.167347 228.22062 369.730992 228.82062 415.987315 153.893533"></polygon>
                <polygon id="路径-27" stroke="url(#linearGradient-27)" points="274.051361 152.83732 227.661224 227.164407 322.22487 227.764407 368.481193 152.83732"></polygon>
                <polygon id="路径-28" fill="url(#linearGradient-28)" points="274.051361 152.83732 227.661224 227.764407 144.46828 74.8916286 190.423175 0"></polygon>
                <polygon id="路径-28" fill="url(#linearGradient-29)" points="248.048944 106.759369 201.658807 181.686456 161.257395 107.815582 208.461321 33.9447084"></polygon>
                <path d="M347.297932,19.3541551 L444.573493,200.354155 L244.429979,200.354155 L145.391984,19.3541551 L347.297932,19.3541551 Z" id="路径-26" stroke="" stroke-width="3"></path>
                <polygon id="路径-28" stroke="url(#linearGradient-30)" points="274.051361 152.83732 227.661224 227.764407 144.46828 74.8916286 190.423175 0"></polygon>
                <polygon id="路径-26" fill="url(#linearGradient-31)" fill-rule="nonzero" points="190.423175 6.62826215e-15 274.051361 152.83732 443.120734 152.83732 360.980756 0"></polygon>
                <ellipse id="椭圆形" stroke="url(#linearGradient-32)" stroke-width="3.6" opacity="0.5" stroke-linecap="round" transform="translate(231.000000, 228.088183) rotate(34.000000) translate(-231.000000, -228.088183) " cx="231" cy="228.088183" rx="222.977767" ry="82"></ellipse>
                <polygon id="路径-26" stroke="url(#linearGradient-33)" fill-rule="nonzero" points="190.423175 6.62826215e-15 274.051361 152.83732 443.120734 152.83732 360.980756 0"></polygon>
                <g id="形状结合" fill-rule="nonzero">
                    <use fill="black" fill-opacity="1" filter="url(#filter-36)" xlink:href="#path-35"></use>
                    <use fill="url(#radialGradient-34)" xlink:href="#path-35"></use>
                </g>
                <line x1="329.269456" y1="113.882203" x2="395.113944" y2="113.882203" id="路径" stroke="url(#linearGradient-37)" stroke-width="1.44" stroke-linecap="round"></line>
                <line x1="292.50059" y1="113.882203" x2="320.027876" y2="113.882203" id="路径" stroke="url(#linearGradient-38)" stroke-width="1.44" stroke-linecap="round"></line>
                <polygon id="路径-32" fill="#FFFFFF" filter="url(#filter-39)" points="175.477132 103.510307 183.556836 118.129558 167.914176 142.510307 159.587308 128.738628"></polygon>
                <line x1="190.423175" y1="0" x2="275.167347" y2="153.893533" id="路径" stroke="url(#linearGradient-40)" stroke-width="1.44" stroke-linecap="round"></line>
                <line x1="270.884983" y1="152.677951" x2="441.442564" y2="152.677951" id="路径" stroke="url(#linearGradient-41)" stroke-width="1.44" stroke-linecap="round"></line>
                <line x1="56.8691056" y1="186.685534" x2="141.613277" y2="340.579067" id="路径" stroke="url(#linearGradient-40)" stroke-width="1.44" stroke-linecap="round"></line>
                <line x1="150.765747" y1="353.783067" x2="310.918598" y2="353.783067" id="路径" stroke="url(#linearGradient-42)" stroke-width="1.44" stroke-linecap="round"></line>
                <polygon id="路径-32" fill="url(#linearGradient-43)" points="174.215676 109.809415 179.685384 119.706192 127.48314 201.686456 121.84611 192.363458"></polygon>
                <polygon id="路径-32" fill="#FFFFFF" points="174.215676 109.809415 179.685384 119.706192 169.09579 136.2112 163.45876 126.888202"></polygon>
                <g id="编组-13" transform="translate(125.393646, 159.319086)">
                    <polygon id="路径-32" fill="url(#linearGradient-44)" points="36.0278408 46.3860298 37.6947624 49.4021235 21.7858606 74.3860298 20.0679468 71.5447983"></polygon>
                    <polygon id="路径-32" fill="#FFFFFF" points="36.0278408 46.3860298 37.6947624 49.4021235 34.4675295 54.4321094 32.7496156 51.5908778"></polygon>
                    <polygon id="路径-32" fill="#FFFFFF" filter="url(#filter-45)" points="36.5330375 43.8633189 39.2452288 48.7707019 33.9943082 56.9548203 31.1991493 52.3319495"></polygon>
                    <polygon id="路径-32" fill="url(#linearGradient-46)" opacity="0.5" points="69.5685273 48.3766999 70.4443781 50.0271043 58.277863 69.3766999 57.3262009 67.8439553"></polygon>
                    <polygon id="路径-32" fill="#FFFFFF" points="69.5685273 48.3766999 70.4443781 50.0271043 68.7547949 52.7805904 67.8031328 51.2478458"></polygon>
                    <polygon id="路径-32" fill="url(#linearGradient-46)" opacity="0.5" points="12.2423264 53.3860298 13.1181772 55.0364342 0.951662077 74.3860298 -4.54747351e-13 72.8532852"></polygon>
                    <polygon id="路径-32" fill="#FFFFFF" points="12.2423264 53.3860298 13.1181772 55.0364342 11.428594 57.7899202 10.4769319 56.2571757"></polygon>
                    <polygon id="路径-32" fill="#FFFFFF" filter="url(#filter-47)" points="12.4717759 52.2500871 13.7994619 54.7519045 11.238254 58.9258629 9.79564717 56.6024038"></polygon>
                    <polygon id="路径-32" fill="url(#linearGradient-46)" opacity="0.5" points="55.0361052 2 55.911956 3.65040442 43.7454409 23 42.7937788 21.4672554"></polygon>
                    <polygon id="路径-32" fill="#FFFFFF" points="55.0361052 2 55.911956 3.65040442 54.2223728 6.40389046 53.2707107 4.87114587"></polygon>
                    <polygon id="路径-32" fill="#FFFFFF" filter="url(#filter-48)" points="55.2655548 0.864057333 56.5932407 3.36587476 54.0320329 7.53983313 52.589426 5.21637406"></polygon>
                    <polygon id="路径-32" fill="url(#linearGradient-46)" opacity="0.5" points="41.9491872 60.3860298 42.825038 62.0364342 30.6585229 81.3860298 29.7068608 79.8532852"></polygon>
                    <polygon id="路径-32" fill="#FFFFFF" points="41.9491872 60.3860298 42.825038 62.0364342 41.1354548 64.7899202 40.1837927 63.2571757"></polygon>
                    <polygon id="路径-32" fill="#FFFFFF" filter="url(#filter-49)" points="42.3170309 58.5649352 43.9172444 61.5802885 40.83031 66.6110148 39.0915863 63.8106307"></polygon>
                </g>
                <g id="编组-13" transform="translate(233.623175, 226.600451)">
                    <polygon id="路径-32" fill="url(#linearGradient-44)" points="28.1268572 35.3766999 29.7937788 38.3927936 13.884877 63.3766999 12.1669632 60.5354684"></polygon>
                    <polygon id="路径-32" fill="#FFFFFF" points="28.1268572 35.3766999 29.7937788 38.3927936 26.5665459 43.4227795 24.848632 40.581548"></polygon>
                    <polygon id="路径-32" fill="#FFFFFF" filter="url(#filter-50)" points="28.6228919 32.8997397 31.3161267 37.7728232 26.1019067 45.8997397 23.3262842 41.3091799"></polygon>
                    <polygon id="路径-32" fill="url(#linearGradient-46)" opacity="0.5" points="56.5685273 49.3766999 57.4443781 51.0271043 45.277863 70.3766999 44.3262009 68.8439553"></polygon>
                    <polygon id="路径-32" fill="#FFFFFF" points="56.5685273 49.3766999 57.4443781 51.0271043 55.7547949 53.7805904 54.8031328 52.2478458"></polygon>
                    <polygon id="路径-32" fill="#FFFFFF" filter="url(#filter-51)" points="57.0327123 47.0786451 58.8226427 50.4514901 55.36973 56.0786451 53.4248682 52.9462554"></polygon>
                    <polygon id="路径-32" fill="url(#linearGradient-46)" opacity="0.5" points="12.7511846 7.40389046 13.6270354 9.05429488 1.46052027 28.4038905 0.508858193 26.8711459"></polygon>
                    <polygon id="路径-32" fill="#FFFFFF" points="12.7511846 7.40389046 13.6270354 9.05429488 11.9374522 11.8077809 10.9857901 10.2750363"></polygon>
                    <polygon id="路径-32" fill="#FFFFFF" filter="url(#filter-52)" points="13.1143744 5.60583569 14.7054236 8.60392011 11.6361679 13.6058357 9.90740183 10.8214893"></polygon>
                    <polygon id="路径-32" fill="url(#linearGradient-46)" opacity="0.5" points="42.0361052 3 42.911956 4.65040442 30.7454409 24 29.7937788 22.4672554"></polygon>
                    <polygon id="路径-32" fill="#FFFFFF" points="42.0361052 3 42.911956 4.65040442 41.2223728 7.40389046 40.2707107 5.87114587"></polygon>
                    <polygon id="路径-32" fill="#FFFFFF" filter="url(#filter-53)" points="42.5002903 0.701945229 44.2902207 4.0747902 40.837308 9.70194523 38.8924461 6.5695555"></polygon>
                    <polygon id="路径-32" fill="url(#linearGradient-46)" opacity="0.5" points="30.5318698 70.3495093 31.4077206 71.9999138 19.2412055 91.3495093 18.2895434 89.8167648"></polygon>
                    <polygon id="路径-32" fill="#FFFFFF" points="30.5318698 70.3495093 31.4077206 71.9999138 29.7181374 74.7533998 28.7664753 73.2206552"></polygon>
                    <polygon id="路径-32" fill="url(#linearGradient-46)" opacity="0.5" points="69.6867045 7.40389046 70.5625553 9.05429488 58.3960402 28.4038905 57.4443781 26.8711459"></polygon>
                    <polygon id="路径-32" fill="#FFFFFF" points="69.6867045 7.40389046 70.5625553 9.05429488 68.872972 11.8077809 67.92131 10.2750363"></polygon>
                    <polygon id="路径-32" fill="#FFFFFF" filter="url(#filter-54)" points="69.9488991 6.10583569 71.3410672 8.72915956 68.6554684 13.1058357 67.1427981 10.6695326"></polygon>
                </g>
                <polygon id="路径-32" fill="url(#linearGradient-55)" points="121.358171 115.29485 124.27766 120.796171 69.0612649 207.209497 66.3665383 201.783277"></polygon>
                <polygon id="路径-32" fill="#FFFFFF" points="121.358171 115.29485 124.27766 120.796171 113.688066 137.301179 110.99334 131.874958"></polygon>
                <polygon id="路径-32" fill="#FFFFFF" filter="url(#filter-56)" points="122.71041 111.298014 126.690386 118.797659 112.254184 141.298014 108.580614 133.900751"></polygon>
                <polygon id="路径-32" fill="url(#linearGradient-57)" opacity="0.5" points="168.826471 76.9144771 170.498061 80.0643277 147.277871 116.993661 145.461592 114.068368"></polygon>
                <polygon id="路径-32" fill="#FFFFFF" points="168.826471 76.9144771 170.498061 80.0643277 167.273436 85.3194455 165.457158 82.3941526"></polygon>
                <polygon id="路径-32" fill="#FFFFFF" filter="url(#filter-58)" points="169.189552 75.1169613 171.576126 79.614088 166.972242 87.1169613 164.379093 82.9404417"></polygon>
                <polygon id="路径-32" fill="url(#linearGradient-57)" opacity="0.5" points="158.469819 167.616602 160.141409 170.766453 136.921219 207.695786 135.104941 204.770493"></polygon>
                <polygon id="路径-32" fill="#FFFFFF" points="158.469819 167.616602 160.141409 170.766453 156.916785 176.02157 155.100507 173.096278"></polygon>
                <polygon id="路径-32" fill="#FFFFFF" filter="url(#filter-59)" points="158.731905 166.319086 160.919598 170.441452 156.699371 177.319086 154.322318 173.49061"></polygon>
                <polygon id="路径-32" fill="url(#linearGradient-46)" opacity="0.5" points="194.962173 207.695786 195.838024 209.346191 183.671509 228.695786 182.719847 227.163042"></polygon>
                <polygon id="路径-32" fill="#FFFFFF" points="194.962173 207.695786 195.838024 209.346191 194.148441 212.099677 193.196778 210.566932"></polygon>
                <polygon id="路径-32" fill="#FFFFFF" filter="url(#filter-60)" points="195.366263 205.695247 197.037852 208.845098 193.813228 214.100216 191.99695 211.174923"></polygon>
                <polygon id="路径-32" fill="url(#linearGradient-57)" opacity="0.5" points="122.60607 167.130313 124.27766 170.280164 101.05747 207.209497 99.2411915 204.284204"></polygon>
                <polygon id="路径-32" fill="#FFFFFF" points="122.60607 167.130313 124.27766 170.280164 121.053035 175.535282 119.236757 172.609989"></polygon>
                <polygon id="路径-32" fill="#FFFFFF" filter="url(#filter-61)" points="122.969151 165.332797 125.355725 169.829924 120.751841 177.332797 118.158692 173.156278"></polygon>
                <g id="编组-12" transform="translate(300.320734, 188.695786)">
                    <polygon id="路径-30" fill="url(#linearGradient-62)" points="54.3757055 88.6508236 66.9934576 88.6508236 13.6602056 175.151531 0.770480905 175.151531"></polygon>
                    <polygon id="路径-30" fill="#FFFFFF" points="54.3757055 88.6508236 66.9934576 88.6508236 59.9875372 100.032826 47.0978124 100.032826"></polygon>
                    <polygon id="路径-30" fill="#FFFFFF" filter="url(#filter-63)" points="52.8232909 85.3418249 72.7775596 85.3418249 61.6980886 103.341825 41.3137104 103.341825"></polygon>
                    <polygon id="路径-30" fill="url(#linearGradient-64)" points="43.9421532 30 51.2802923 30 28.0599937 66.8540192 20.5636827 66.8540192"></polygon>
                    <polygon id="路径-30" fill="#FFFFFF" points="43.9421532 30 51.2802923 30 47.2058408 36.6194611 39.7095298 36.6194611"></polygon>
                    <polygon id="路径-30" fill="#FFFFFF" filter="url(#filter-65)" points="43.1491644 28.3097305 54.2348692 28.3097305 48.0796075 38.3097305 36.754953 38.3097305"></polygon>
                    <polygon id="路径-33" fill="url(#linearGradient-66)" points="16.2074358 115.048397 20.5636827 115.048397 5.48592393 141.372997 1.09485643 141.372997"></polygon>
                    <polygon id="路径-33" fill="#FFFFFF" points="16.2074358 115.048397 20.5636827 115.048397 16.8357317 121.667858 12.4446642 121.667858"></polygon>
                    <polygon id="路径-33" fill="#FFFFFF" filter="url(#filter-67)" points="16.0110647 112.858128 23.2501308 112.858128 17.0551459 123.858128 9.75821608 123.858128"></polygon>
                    <polygon id="路径-33" fill="url(#linearGradient-68)" points="87.7947958 4.02816963 92.1510427 4.02816963 61.4367025 55.9718304 57.045635 55.9718304"></polygon>
                    <polygon id="路径-33" fill="#FFFFFF" points="87.7947958 4.02816963 92.1510427 4.02816963 86.0141256 14.6433392 81.6230581 14.6433392"></polygon>
                    <polygon id="路径-33" fill="#FFFFFF" filter="url(#filter-69)" points="88.426302 0.335754395 95.8131313 0.335754395 85.4068436 18.3357544 77.9609696 18.3357544"></polygon>
                    <polygon id="路径-33" fill="url(#linearGradient-70)" points="50.3786674 77.2698377 53.396285 77.2698377 37.3903892 103 34.348651 103"></polygon>
                    <polygon id="路径-33" fill="#FFFFFF" points="50.3786674 77.2698377 53.396285 77.2698377 52.2060378 78.9250998 49.1642996 78.9250998"></polygon>
                    <polygon id="路径-33" fill="#FFFFFF" filter="url(#filter-71)" points="49.6461857 76.5974688 55.1153212 76.5974688 52.9581151 79.5974688 47.4452634 79.5974688"></polygon>
                </g>
            </g>
        </g>
    </g>
</svg>