<?xml version="1.0" encoding="UTF-8"?>
<svg width="389px" height="389px" viewBox="0 0 389 389" version="1.1" xmlns="http://www.w3.org/2000/svg" xmlns:xlink="http://www.w3.org/1999/xlink">
    <title>img4</title>
    <defs>
        <linearGradient x1="49.9998076%" y1="203.42%" x2="49.9998076%" y2="0%" id="linearGradient-1">
            <stop stop-color="#EE26FF" offset="0%"></stop>
            <stop stop-color="#FF002E" offset="99.4792%"></stop>
        </linearGradient>
        <linearGradient x1="49.9999151%" y1="203.417647%" x2="49.9999151%" y2="0%" id="linearGradient-2">
            <stop stop-color="#EE26FF" offset="0%"></stop>
            <stop stop-color="#FF002E" offset="99.4792%"></stop>
        </linearGradient>
        <radialGradient cx="5.64516129%" cy="36.5591398%" fx="5.64516129%" fy="36.5591398%" r="112.534032%" gradientTransform="translate(0.056452,0.365591),scale(1.000000,0.666667),rotate(27.299600),translate(-0.056452,-0.365591)" id="radialGradient-3">
            <stop stop-color="#FFEA7A" offset="0%"></stop>
            <stop stop-color="#FFD600" offset="42.9316%"></stop>
            <stop stop-color="#FFAE28" offset="100%"></stop>
        </radialGradient>
        <radialGradient cx="53.7308337%" cy="50.0000249%" fx="53.7308337%" fy="50.0000249%" r="53.7308168%" gradientTransform="translate(0.537308,0.500000),scale(1.000000,0.930565),rotate(90.000000),translate(-0.537308,-0.500000)" id="radialGradient-4">
            <stop stop-color="#FFFFFF" stop-opacity="0" offset="42.7083%"></stop>
            <stop stop-color="#1DFF33" stop-opacity="0.577102" offset="59.8958%"></stop>
            <stop stop-color="#BF1F89" stop-opacity="0.765056" offset="80.3121%"></stop>
            <stop stop-color="#2170FF" offset="100%"></stop>
        </radialGradient>
        <linearGradient x1="100%" y1="103.42%" x2="100%" y2="-100%" id="linearGradient-5">
            <stop stop-color="#EE26FF" offset="0%"></stop>
            <stop stop-color="#FF002E" offset="99.4792%"></stop>
        </linearGradient>
        <radialGradient cx="100%" cy="55.7143548%" fx="100%" fy="55.7143548%" r="100%" id="radialGradient-6">
            <stop stop-color="#5BFF21" offset="0%"></stop>
            <stop stop-color="#5BFF21" offset="0.01%"></stop>
            <stop stop-color="#21BCFF" offset="100%"></stop>
        </radialGradient>
        <filter x="-15.2%" y="-15.2%" width="130.4%" height="130.4%" filterUnits="objectBoundingBox" id="filter-7">
            <feGaussianBlur stdDeviation="5" in="SourceGraphic"></feGaussianBlur>
        </filter>
        <linearGradient x1="100%" y1="131.436633%" x2="29.2895961%" y2="0%" id="linearGradient-8">
            <stop stop-color="#EE26FF" offset="0%"></stop>
            <stop stop-color="#FF2B51" offset="100%"></stop>
        </linearGradient>
        <linearGradient x1="26.199223%" y1="0%" x2="100%" y2="100%" id="linearGradient-9">
            <stop stop-color="#30F6E5" offset="0%"></stop>
            <stop stop-color="#34C8F4" offset="14.5833%"></stop>
            <stop stop-color="#21BCFF" offset="66.6667%"></stop>
            <stop stop-color="#4021FF" offset="100%"></stop>
        </linearGradient>
    </defs>
    <g id="2.0" stroke="none" stroke-width="1" fill="none" fill-rule="evenodd">
        <g id="sherpax网站" transform="translate(-135.000000, -2098.000000)">
            <g id="img4" transform="translate(135.705637, 2098.516187)">
                <path d="M254.118819,135.751861 C246.51296,122.579309 235.574537,111.640886 222.401985,104.035605 C209.229433,96.4306124 194.287197,92.426799 179.076923,92.426799 C163.866649,92.426799 148.924413,96.4306124 135.751861,104.035605 C122.579309,111.640886 111.640886,122.579309 104.035605,135.751861 L179.076923,179.076923 L254.118819,135.751861 Z" id="路径" fill="url(#linearGradient-1)" fill-rule="nonzero"></path>
                <path d="M264.12402,129.975186 C255.505221,115.046236 243.107321,102.649492 228.17866,94.0301151 C213.24971,85.4110273 196.315099,80.8734491 179.076923,80.8734491 C161.838459,80.8734491 144.903847,85.4110273 129.975186,94.0301151 C115.046236,102.649492 102.649492,115.046525 94.0301151,129.975186 L179.076923,179.076923 L264.12402,129.975186 Z" id="路径" fill="url(#linearGradient-2)" fill-rule="nonzero"></path>
                <path d="M179.076923,358.153846 C210.511566,358.153846 241.392226,349.878759 268.615385,334.163315 C295.837965,318.444983 318.444983,295.837965 334.163315,268.615385 C349.878759,241.392226 358.153846,210.511566 358.153846,179.076923 C358.153846,147.64228 349.878759,116.76162 334.163315,89.5384615 L179.076923,179.076923 L179.076923,358.153846 Z" id="路径" fill="url(#radialGradient-3)" fill-rule="nonzero"></path>
                <path d="M333.285261,88.0371037 C317.304089,60.967605 294.480447,38.5821231 267.104784,23.1298065 C239.730855,7.67748983 208.771343,-0.296747792 177.338144,0.00843394541 C145.905234,0.313644566 115.106314,8.88741439 88.0371037,24.8682968 C60.967605,40.8491792 38.5818342,63.6739772 23.1298065,91.0484844 C7.67748983,118.422992 -0.296632258,149.382503 0.00837617866,180.815702 C0.313673449,212.248612 8.88741439,243.047533 24.8682968,270.11732 C40.8491792,297.186819 63.6739772,319.571434 91.0484844,335.02404 C118.422992,350.476645 149.382503,358.451345 180.815702,358.145181 L179.076923,179.076923 L333.285261,88.0371037 Z" id="路径" fill="url(#radialGradient-4)" fill-rule="nonzero" opacity="0.15"></path>
                <path d="M104.035605,222.401985 C111.640886,235.574537 122.579309,246.51296 135.751861,254.118241 C148.924413,261.723234 163.866649,265.727047 179.076923,265.727047 L179.076923,179.076923 L104.035605,222.401985 Z" id="路径" fill="#C32EFF" fill-rule="nonzero"></path>
                <path d="M104.035605,222.401985 C111.640886,235.574537 122.579309,246.51296 135.751861,254.118241 C148.924413,261.723234 163.866649,265.727047 179.076923,265.727047 L179.076923,179.076923 L104.035605,222.401985 Z" id="路径" fill="url(#linearGradient-5)" fill-rule="nonzero"></path>
                <path d="M23.9916864,89.5384615 C8.27450918,116.76162 0,147.64228 0,179.076923 C0,210.511566 8.27450918,241.392226 23.9916864,268.615385 L179.076923,179.076923 L23.9916864,89.5384615 Z" id="路径" fill="url(#radialGradient-6)" fill-rule="nonzero"></path>
                <polyline id="路径" stroke="#1E1E1E" stroke-width="8" stroke-linecap="round" points="28.8833747 92.426799 179.076923 179.076923 179.076923 352.377171"></polyline>
                <line x1="28.8833747" y1="265.727047" x2="329.270471" y2="89.5384615" id="路径" stroke="#1E1E1E" stroke-width="8" stroke-linecap="round"></line>
                <circle id="椭圆形" fill="#000000" fill-rule="nonzero" opacity="0.170567104" filter="url(#filter-7)" cx="178.387067" cy="202.434694" r="49.3110368"></circle>
                <circle id="椭圆形" fill="url(#linearGradient-8)" fill-rule="nonzero" cx="178.387067" cy="179.076834" r="49.3110368"></circle>
                <g id="区块链" transform="translate(148.540913, 149.230680)" fill="#FFFFFF" fill-rule="nonzero">
                    <path d="M47.7536685,35.815368 L47.7536689,35.815368 C54.3470533,35.8167927 59.6909201,41.1629597 59.6895211,47.75635 C59.6880964,54.3497345 54.3419293,59.6936013 47.748539,59.6922025 C41.1551546,59.6907776 35.8112878,54.3446105 35.8126868,47.7512202 C35.8130874,45.8974222 36.2451931,44.0691857 37.0747667,42.4113582 L22.6173196,35.1886388 L22.6173199,35.1886382 C19.6667677,41.0850093 12.4949151,43.4730541 6.59854405,40.5225135 C0.702173002,37.5719613 -1.68587184,30.4001087 1.26466873,24.5037377 C4.21522096,18.6073667 11.3870735,16.2193218 17.2834446,19.1698624 C19.5972703,20.3277021 21.4723163,22.2059018 22.6262738,24.5216687 L37.0926397,17.3168454 L37.0926404,17.3168467 C34.1223092,11.4303855 36.4862847,4.25057005 42.3727168,1.28023306 C48.2591779,-1.6900981 55.4389934,0.673877422 58.4093304,6.56030945 C61.3796615,12.4467706 59.015686,19.6265861 53.129254,22.5969231 C51.4621578,23.4381484 49.6209802,23.8765842 47.7536698,23.8770039 L47.7536698,35.8154211 L47.7536685,35.815368 Z M44.7690672,36.1914282 L44.7690672,23.5009105 L44.7690672,23.5009105 C42.4471678,22.9008097 40.3598233,21.6153309 38.7789605,19.811939 L23.6171549,27.3629665 L23.6171549,27.3629668 C23.9664132,29.0060403 23.9664132,30.7041835 23.6171549,32.347257 L38.7491142,39.9132088 L38.749113,39.9132088 C40.3334443,38.0926438 42.4323484,36.795005 44.7690672,36.1914066 L44.7690672,36.1914282 Z" id="形状"></path>
                </g>
                <g id="编组-11" transform="translate(268.615385, 179.076923)" fill-rule="nonzero">
                    <circle id="椭圆形" fill="#000000" cx="59.1959245" cy="59.1959245" r="59.1959245"></circle>
                    <g id="Substrate-Developer-Hub" transform="translate(22.117507, 16.220736)" fill="#FFFFFF">
                        <path d="M37.3509476,84.330524 L36.2306355,84.9750279 L36.4339353,85.0918172 L37.3509476,84.5641026 L37.3509476,85.6022297 L74.6240357,64.0827202 L74.6240357,61.7555853 L37.3509476,83.2750948 L37.3509476,84.330524 Z M37.3509476,77.2582832 L30.1100111,81.4410702 L30.460379,81.6443701 L37.3509476,77.6692085 L37.3509476,78.5429654 L74.6240357,57.0191304 L74.6240357,54.8606912 L37.3509476,76.3802007 L37.3509476,77.2582832 Z M37.3509476,70.1903679 L23.9850613,77.9071126 L24.4911483,78.1969231 L37.3509476,70.7743144 L37.3509476,71.4707246 L74.6240357,49.9512152 L74.6240357,47.9657971 L37.3509476,69.4853066 L37.3509476,70.1903679 Z M74.6240357,21.017748 L74.0746934,20.7019844 L44.2285396,37.9348941 L40.3528651,35.6985953 L49.4235006,30.460379 L49.4235006,29.1497436 L69.0657302,17.8082051 L68.1054627,17.2545373 L49.4235006,28.0380825 L49.4235006,26.9134448 L37.2817391,33.9251282 L33.0946265,31.5071572 L62.9407804,14.2742475 L62.1319064,13.8070903 L32.2857525,31.04 L28.2111037,28.6869119 L34.8291639,24.8674693 L33.5920624,24.153757 L56.8244816,10.7402899 L56.1670011,10.3596433 L32.9345819,23.7731104 L31.7580379,23.0940022 L25.1226756,26.9134448 L25.1226756,28.2846377 L18.9025641,31.8748272 L18.4483835,31.6152954 L0.0389297659,42.238796 L0.0389297659,44.0468673 L20.0142252,32.5150056 L19.5557191,32.2511483 L25.1183501,29.0416054 L25.1183501,30.451728 L29.210301,32.8134671 L24.8761204,35.3136232 L24.5733333,35.140602 L0.0389297659,49.3110368 L0.0389297659,50.946087 L25.9964326,35.9581271 L25.68932,35.7807804 L30.019175,33.2806243 L34.2062876,35.6985953 L25.1226756,40.9454627 L25.1226756,41.8970792 L0.0389297659,56.3789521 L0.0389297659,57.8366555 L25.1226756,43.3547826 L25.1226756,44.4707692 L29.0156522,46.7157191 L0.0432552954,63.4425418 L0.0432552954,64.0740691 L0.609899666,64.4028094 L30.1316388,47.360223 L34.1587068,49.6830323 L25.1270011,54.8477146 L25.1270011,56.0329097 L5.62318841,67.2965886 L6.58345596,67.8502564 L25.1270011,57.1445708 L25.1270011,58.5114381 L37.2860647,51.4911037 L40.9584392,53.6106132 L37.3552731,55.6911929 L37.3552731,56.0415608 L11.7438127,70.8262207 L12.5526867,71.2933779 L37.3552731,56.9758751 L37.3552731,57.326243 L42.3772129,54.4281382 L46.3610256,56.72932 L39.8597547,60.4838796 L40.4307246,60.8126198 L37.3552731,62.586087 L37.3552731,63.1138016 L17.864437,74.3688294 L18.5219175,74.749476 L37.3509476,63.8794203 L37.3509476,64.4028094 L41.9922408,61.720981 L42.9265552,62.2616722 L49.4278261,58.5157637 L49.4278261,57.4300557 L74.6283612,42.8832999 L74.6283612,41.0752285 L49.4278261,55.6219844 L49.4278261,54.9601784 L45.4440134,52.6589967 L74.6240357,35.8110591 L74.6240357,34.1760089 L44.0252397,51.8414716 L40.3528651,49.7219621 L49.4235006,44.4837458 L49.4235006,43.2898997 L74.6240357,28.7431438 L74.6240357,27.2854404 L49.4235006,41.8321962 L49.4235006,40.9368116 L45.3402007,38.579398 L74.6240357,21.670903 L74.6240357,21.017748 Z M28.2111037,42.7102787 L37.2817391,37.4720624 L41.1530881,39.7083612 L36.8318841,42.2041918 L32.0824526,44.9465775 L28.2111037,42.7102787 L28.2111037,42.7102787 Z M46.3523746,42.7102787 L37.2428094,47.9225418 L33.2027648,45.5910814 L37.3725753,43.1817614 L42.2734002,40.3528651 L46.3523746,42.7102787 L46.3523746,42.7102787 Z M13.4264437,28.7258417 L50.6995318,7.20633222 L50.1934448,6.91219621 L12.9203567,28.4317057 L12.3147826,28.0856633 L0.0389297659,35.1708807 L0.0389297659,37.1562988 L14.0363434,29.0762096 L13.4264437,28.7258417 Z M7.29716834,25.1962096 L44.5789075,3.67237458 L44.224214,3.46474916 L6.94247492,24.9929097 L6.18118172,24.5560312 L0.0389297659,28.1029654 L0.0389297659,30.2614047 L8.05846154,25.6330881 L7.29716834,25.1962096 Z M1.16356745,21.6665775 L38.4539576,0.134091416 L38.2506577,0.0173021182 L0.960267559,21.5497882 L0.0519063545,21.0263991 L0.0389297659,21.0307246 L0.0389297659,23.3665106 L2.07625418,22.1899666 L1.16356745,21.6665775 Z" id="形状"></path>
                    </g>
                </g>
                <g id="编组-14" transform="translate(134.734203, 268.615385)" fill-rule="nonzero">
                    <g id="编组-11" fill="url(#linearGradient-9)">
                        <circle id="椭圆形" cx="59.1959245" cy="59.1959245" r="59.1959245"></circle>
                    </g>
                    <path d="M50.5181958,99.9197324 L50.5181958,97.2331731 L42.2456206,97.2331731 L42.2456206,93.3908863 L49.5043998,93.3908863 L49.5043998,90.7955686 L42.2456206,90.7955686 L42.2456206,87.6223871 L50.1532293,87.6223871 L50.1532293,84.9763796 L39.1940946,84.9763796 L39.1940946,99.9197324 L50.5181958,99.9197324 Z M59.8451189,99.9197324 L64.9445127,84.9763796 L61.7003655,84.9763796 L58.4258045,96.3207567 L55.1816574,84.9763796 L51.8462686,84.9763796 L56.8949726,99.9197324 L59.8451189,99.9197324 Z M69.658664,99.9197324 L69.6583824,89.6571602 C69.6574437,89.3825904 69.6541583,89.0270578 69.6485261,88.5905623 C69.6440203,88.2413659 69.6410165,87.9454877 69.6395146,87.7029276 L69.6383881,87.3790761 L72.446603,99.9197324 L75.477853,99.9197324 L78.3063438,87.3790761 C78.3063438,87.662939 78.3029645,88.0667677 78.2962058,88.5905623 C78.2917001,88.9397587 78.2886962,89.2371388 78.2871943,89.4827028 L78.2860679,99.9197324 L81.1956624,99.9197324 L81.1956624,84.9763796 L76.7045461,84.9763796 L74.0078488,96.7262751 L71.2908756,84.9763796 L66.7490696,84.9763796 L66.7490696,99.9197324 L69.658664,99.9197324 Z" id="EVM" fill="#FFFFFF"></path>
                    <g id="evm云主机" transform="translate(36.872502, 25.953177)" fill="#FFFFFF">
                        <path d="M44.1199458,25.9537144 L2.59582764,25.9537144 C1.16789434,25.9537144 0,27.1216087 0,28.549542 L0,44.1199458 C0,45.5478791 1.16789434,46.7157734 2.59582764,46.7157734 L44.1199458,46.7157734 C45.5478791,46.7157734 46.7157734,45.5478791 46.7157734,44.1199458 L46.7157734,28.549542 C46.7157734,27.1216087 45.5478791,25.9537144 44.1199458,25.9537144 Z M10.3833106,41.5241181 C7.52744396,41.5241181 5.19165529,39.1883295 5.19165529,36.3324628 C5.19165529,33.4765962 7.52744396,31.1453696 10.3833106,31.1453696 C13.2391772,31.1453696 15.5749659,33.4811583 15.5749659,36.3370249 C15.5749659,39.1928916 13.2346151,41.5241181 10.3833106,41.5241181 Z M44.1199458,0 L2.59582764,0 C1.16789434,0 0,1.16789434 0,2.59582764 L0,18.1662314 C0,19.5941647 1.16789434,20.7620591 2.59582764,20.7620591 L44.1199458,20.7620591 C45.5478791,20.7620591 46.7157734,19.5941647 46.7157734,18.1662314 L46.7157734,2.59582764 C46.7157734,1.16789434 45.5478791,0 44.1199458,0 Z M10.3833106,15.5704038 C7.52744396,15.5704038 5.19165529,13.2346151 5.19165529,10.3787485 C5.19165529,7.52288187 7.52744396,5.19165529 10.3833106,5.19165529 C13.2391772,5.19165529 15.5704038,7.52744396 15.5704038,10.3833106 C15.5704038,13.2391772 13.2346151,15.5704038 10.3833106,15.5704038 Z" id="形状"></path>
                    </g>
                </g>
            </g>
        </g>
    </g>
</svg>