<?xml version="1.0" encoding="UTF-8"?>
<svg width="612px" height="413px" viewBox="0 0 612 413" version="1.1" xmlns="http://www.w3.org/2000/svg" xmlns:xlink="http://www.w3.org/1999/xlink">
    <title>img5</title>
    <defs>
        <linearGradient x1="112.324855%" y1="0%" x2="112.324855%" y2="105.71375%" id="linearGradient-1">
            <stop stop-color="#30F6E5" offset="0%"></stop>
            <stop stop-color="#34C8F4" offset="14.5833%"></stop>
            <stop stop-color="#21BCFF" offset="66.6667%"></stop>
            <stop stop-color="#4021FF" offset="100%"></stop>
        </linearGradient>
        <radialGradient cx="77.4961349%" cy="164.168506%" fx="77.4961349%" fy="164.168506%" r="171.554744%" gradientTransform="translate(0.774961,1.641685),scale(0.426295,1.000000),rotate(-131.133128),translate(-0.774961,-1.641685)" id="radialGradient-2">
            <stop stop-color="#21BCFF" offset="0%"></stop>
            <stop stop-color="#FFFFFF" offset="100%"></stop>
        </radialGradient>
        <path d="M242.872921,169.924097 L252.445696,152.54582 L250.413496,169.924097 L256.455942,169.924097 L276.041619,134.368542 L268.950483,134.368542 L259.377708,151.746819 L261.559721,134.368542 L255.367461,134.368542 L235.781785,169.924097 L242.872921,169.924097 Z M269.040212,169.924097 L277.155064,155.192512 L285.145076,155.192512 L288.666097,148.800502 L280.676084,148.800502 L285.104868,140.760552 L294.393257,140.760552 L297.914278,134.368542 L281.534752,134.368542 L261.949076,169.924097 L269.040212,169.924097 Z M293.609501,169.924097 L309.674156,140.760552 L315.666666,140.760552 L319.187686,134.368542 L300.111531,134.368542 L296.590511,140.760552 L302.58302,140.760552 L286.518364,169.924097 L293.609501,169.924097 Z" id="path-3"></path>
        <filter x="-10.8%" y="-16.9%" width="121.6%" height="150.6%" filterUnits="objectBoundingBox" id="filter-4">
            <feOffset dx="0" dy="3" in="SourceAlpha" result="shadowOffsetOuter1"></feOffset>
            <feGaussianBlur stdDeviation="2.5" in="shadowOffsetOuter1" result="shadowBlurOuter1"></feGaussianBlur>
            <feColorMatrix values="0 0 0 0 0   0 0 0 0 0   0 0 0 0 0  0 0 0 0.287764969 0" type="matrix" in="shadowBlurOuter1"></feColorMatrix>
        </filter>
        <linearGradient x1="50%" y1="93.9110135%" x2="56.2104868%" y2="0%" id="linearGradient-5">
            <stop stop-color="#000CDB" offset="0%"></stop>
            <stop stop-color="#33C7F4" stop-opacity="0" offset="100%"></stop>
        </linearGradient>
        <linearGradient x1="0%" y1="54.9320058%" x2="82.8185477%" y2="50%" id="linearGradient-6">
            <stop stop-color="#000000" stop-opacity="0" offset="0%"></stop>
            <stop stop-color="#0006FF" offset="100%"></stop>
        </linearGradient>
        <filter x="-132.6%" y="-139.3%" width="365.3%" height="353.7%" filterUnits="objectBoundingBox" id="filter-7">
            <feGaussianBlur stdDeviation="24.192" in="SourceGraphic"></feGaussianBlur>
        </filter>
        <linearGradient x1="40.3827374%" y1="7.68236961%" x2="40.3827374%" y2="76.3805634%" id="linearGradient-8">
            <stop stop-color="#4021FF" offset="0%"></stop>
            <stop stop-color="#21BCFF" offset="33.3333%"></stop>
            <stop stop-color="#33C8F5" stop-opacity="0" offset="100%"></stop>
        </linearGradient>
        <linearGradient x1="35.3098527%" y1="13.8523433%" x2="50%" y2="82.9172672%" id="linearGradient-9">
            <stop stop-color="#FFFFFF" stop-opacity="0" offset="0%"></stop>
            <stop stop-color="#FFFFFF" offset="52.6042%"></stop>
            <stop stop-color="#FFFFFF" stop-opacity="0" offset="100%"></stop>
        </linearGradient>
        <linearGradient x1="33.3803553%" y1="13.8523433%" x2="50%" y2="82.9172672%" id="linearGradient-10">
            <stop stop-color="#FFFFFF" stop-opacity="0" offset="0%"></stop>
            <stop stop-color="#FFFFFF" offset="52.6042%"></stop>
            <stop stop-color="#FFFFFF" stop-opacity="0" offset="100%"></stop>
        </linearGradient>
        <linearGradient x1="17.7975275%" y1="50.0070317%" x2="93.8903634%" y2="50%" id="linearGradient-11">
            <stop stop-color="#FFFFFF" stop-opacity="0" offset="0%"></stop>
            <stop stop-color="#FFFFFF" offset="52.6042%"></stop>
            <stop stop-color="#FFFFFF" stop-opacity="0" offset="100%"></stop>
        </linearGradient>
        <filter x="-93.8%" y="-93.8%" width="287.5%" height="287.5%" filterUnits="objectBoundingBox" id="filter-12">
            <feGaussianBlur stdDeviation="10" in="SourceGraphic"></feGaussianBlur>
        </filter>
        <linearGradient x1="96.1963068%" y1="43.3633994%" x2="10.4521445%" y2="60.3820424%" id="linearGradient-13">
            <stop stop-color="#4021FF" offset="0%"></stop>
            <stop stop-color="#21BCFF" offset="33.3333%"></stop>
            <stop stop-color="#33DAEE" stop-opacity="0" offset="100%"></stop>
        </linearGradient>
        <filter x="-81.8%" y="-81.8%" width="263.6%" height="263.6%" filterUnits="objectBoundingBox" id="filter-14">
            <feGaussianBlur stdDeviation="9" in="SourceGraphic"></feGaussianBlur>
        </filter>
        <linearGradient x1="43.7237532%" y1="38.3709282%" x2="50.0001037%" y2="105.714711%" id="linearGradient-15">
            <stop stop-color="#34CDF2" stop-opacity="0" offset="0%"></stop>
            <stop stop-color="#21BCFF" offset="66.6667%"></stop>
            <stop stop-color="#4021FF" offset="100%"></stop>
        </linearGradient>
        <linearGradient x1="48.0656515%" y1="24.4072052%" x2="50.0001037%" y2="105.714711%" id="linearGradient-16">
            <stop stop-color="#34CDF2" stop-opacity="0" offset="0%"></stop>
            <stop stop-color="#21BCFF" offset="66.6667%"></stop>
            <stop stop-color="#4021FF" offset="100%"></stop>
        </linearGradient>
        <filter x="-75.1%" y="-81.8%" width="250.2%" height="263.6%" filterUnits="objectBoundingBox" id="filter-17">
            <feGaussianBlur stdDeviation="9" in="SourceGraphic"></feGaussianBlur>
        </filter>
        <linearGradient x1="96.1963068%" y1="43.3633994%" x2="10.4521445%" y2="60.3820424%" id="linearGradient-18">
            <stop stop-color="#4021FF" offset="0%"></stop>
            <stop stop-color="#21BCFF" offset="33.3333%"></stop>
            <stop stop-color="#33DAEE" stop-opacity="0" offset="100%"></stop>
        </linearGradient>
        <filter x="-100.0%" y="-100.0%" width="300.0%" height="300.0%" filterUnits="objectBoundingBox" id="filter-19">
            <feGaussianBlur stdDeviation="11" in="SourceGraphic"></feGaussianBlur>
        </filter>
        <linearGradient x1="40.3827374%" y1="7.68236961%" x2="40.3827374%" y2="76.3805634%" id="linearGradient-20">
            <stop stop-color="#4021FF" offset="0%"></stop>
            <stop stop-color="#21BCFF" offset="33.3333%"></stop>
            <stop stop-color="#33C8F5" stop-opacity="0" offset="100%"></stop>
        </linearGradient>
        <filter x="-75.0%" y="-75.0%" width="250.0%" height="250.0%" filterUnits="objectBoundingBox" id="filter-21">
            <feGaussianBlur stdDeviation="9" in="SourceGraphic"></feGaussianBlur>
        </filter>
        <filter x="-92.3%" y="-92.3%" width="284.6%" height="284.6%" filterUnits="objectBoundingBox" id="filter-22">
            <feGaussianBlur stdDeviation="8" in="SourceGraphic"></feGaussianBlur>
        </filter>
        <linearGradient x1="100%" y1="24.6127165%" x2="50%" y2="64.6092038%" id="linearGradient-23">
            <stop stop-color="#FFFFFF" offset="0%"></stop>
            <stop stop-color="#FFD600" offset="51.5625%"></stop>
            <stop stop-color="#FFAE28" offset="79.6875%"></stop>
            <stop stop-color="#FF5C28" offset="100%"></stop>
        </linearGradient>
    </defs>
    <g id="2.0" stroke="none" stroke-width="1" fill="none" fill-rule="evenodd">
        <g id="sherpax网站" transform="translate(-629.000000, -2599.000000)">
            <g id="img5" transform="translate(629.312575, 2624.193090)">
                <g id="编组">
                    <polygon id="矩形" fill="url(#linearGradient-1)" fill-rule="nonzero" points="254.079677 116.301923 338.404596 116.301923 296.894058 187.990716 212.569139 187.990716"></polygon>
                    <g id="NFT" fill-rule="nonzero">
                        <use fill="black" fill-opacity="1" filter="url(#filter-4)" xlink:href="#path-3"></use>
                        <use fill="url(#radialGradient-2)" xlink:href="#path-3"></use>
                    </g>
                    <polygon id="矩形" fill="url(#linearGradient-5)" points="379.915134 188.613131 338.404596 116.301923 296.894058 187.990716 338.404596 260.301923"></polygon>
                    <polygon id="矩形" fill="url(#linearGradient-6)" points="254.079677 260.301923 338.404596 260.301923 296.894058 187.990716 212.569139 187.990716"></polygon>
                    <polygon id="星形" fill="#FBEC9B" filter="url(#filter-7)" points="296.713558 201.323949 274.158748 201.323949 285.436153 181.790911 296.713558 162.257873 307.990963 181.790911 319.268367 201.323949"></polygon>
                    <path d="M456.375652,132.428186 L420.050464,194.284881 L420.050464,194.284881 L398.342521,181.241433 L434.791752,119.969579 C437.332977,115.697733 435.93003,110.174647 431.658184,107.633423 C430.26616,106.80534 428.676465,106.368262 427.056758,106.368286 L377.911561,106.369004 L377.911561,106.369004 L370.600803,93.7063984 L377.911561,81.043793 L427.172796,81.2112191 C445.950369,81.2750392 461.120863,96.5490062 461.057043,115.326579 C461.036603,121.340828 459.421208,127.242032 456.375652,132.428186 Z" id="路径" fill="url(#linearGradient-8)" fill-rule="nonzero"></path>
                    <line x1="297.914278" y1="188.301923" x2="338.404596" y2="263.002356" id="路径" stroke="url(#linearGradient-9)" stroke-width="0.8" opacity="0.400000006" stroke-linecap="round"></line>
                    <line x1="296.894058" y1="188.301923" x2="338.404596" y2="116.301923" id="路径" stroke="url(#linearGradient-10)" stroke-width="0.8" stroke-linecap="round"></line>
                    <line x1="296.894058" y1="188.301923" x2="212.569139" y2="188.301923" id="路径" stroke="url(#linearGradient-11)" stroke-width="0.8" stroke-linecap="round"></line>
                    <circle id="椭圆形" fill="#3E2CFF" cx="379.092132" cy="93.4994952" r="12.4557022"></circle>
                    <circle id="椭圆形" fill="#FFFFFF" filter="url(#filter-12)" cx="379.092132" cy="93.4994952" r="16"></circle>
                    <path d="M158.315133,337.721715 L158.315133,316.790763 L294.442656,316.790274 C336.935228,316.790121 376.311408,294.493217 398.170299,258.054122 L437.411025,192.63925 L437.411025,192.63925 L451.246096,192.63925 L458.163631,204.620773 L422.104319,266.352754 C396.2872,310.550543 348.948752,337.721715 297.763126,337.721715 L158.315133,337.721715 L158.315133,337.721715 Z" id="路径" fill="url(#linearGradient-13)" fill-rule="nonzero"></path>
                    <circle id="椭圆形" fill="#4021FF" cx="449.192664" cy="196.906672" r="13"></circle>
                    <circle id="椭圆形" fill="#FFFFFF" filter="url(#filter-14)" cx="449.192664" cy="196.906672" r="16.5"></circle>
                    <path d="M61.4007487,255.372551 L145.489946,111.169004 L145.489946,111.169004 L161.827938,120.601748 L81.2098446,258.604992 C66.0551023,284.547104 74.7999931,317.862687 100.742105,333.017429 C109.068711,337.881627 118.538667,340.445036 128.181943,340.44508 L219.980347,340.445503 L219.980347,340.445503 L219.980347,359.310991 L121.110469,359.310991 C82.936547,359.310991 51.9904689,328.364913 51.9904689,290.190991 C51.9904689,277.956558 55.2377878,265.941339 61.4007487,255.372551 Z" id="路径" fill="url(#linearGradient-15)" fill-rule="nonzero"></path>
                    <path d="M429.791162,176.442043 L528.721248,6.78803547 L528.721248,6.78803547 L546.734931,17.1882405 L450.835651,181.350047 C436.3495,206.147654 444.708587,237.993432 469.506194,252.479582 C477.465449,257.129183 486.517613,259.579501 495.735451,259.579543 L610.85169,259.580072 L610.85169,259.580072 L610.85169,280.380482 L489.500882,280.380482 C451.32696,280.380482 420.380882,249.434404 420.380882,211.260482 C420.380882,199.02605 423.628201,187.01083 429.791162,176.442043 Z" id="路径" fill="url(#linearGradient-16)" fill-rule="nonzero" transform="translate(490.016693, 143.584259) scale(-1, -1) translate(-490.016693, -143.584259) "></path>
                    <circle id="椭圆形" fill="#4B70FF" fill-rule="nonzero" cx="371.839" cy="16.9831981" r="11.1951627"></circle>
                    <polygon id="多边形" fill="#FFFFFF" filter="url(#filter-17)" transform="translate(372.642777, 17.179422) scale(-1, -1) rotate(-630.000000) translate(-372.642777, -17.179422) " points="372.642777 0.679421612 386.932196 8.92942161 386.932196 25.4294216 372.642777 33.6794216 358.353358 25.4294216 358.353358 8.92942161"></polygon>
                    <path d="M138.699968,183.708022 L138.699968,162.997396 L272.673586,162.996914 C315.166159,162.996762 354.542339,140.699858 376.40123,104.260763 L414.858009,40.1527412 L414.858009,40.1527412 L428.547448,40.1527412 L435.392167,52.0081427 L400.151253,112.339061 C374.334134,156.536851 326.995686,183.708022 275.81006,183.708022 L138.699968,183.708022 L138.699968,183.708022 Z" id="路径" fill="url(#linearGradient-18)" fill-rule="nonzero" transform="translate(287.046068, 111.930382) scale(-1, -1) translate(-287.046068, -111.930382) "></path>
                    <circle id="椭圆形" fill="#3F27FF" cx="147.077339" cy="180.13925" r="12.5"></circle>
                    <circle id="椭圆形" fill="#FFFFFF" filter="url(#filter-19)" cx="147.077339" cy="180.13925" r="16.5"></circle>
                    <path d="M194.337195,222.254264 L151.212755,295.502356 L151.212755,295.502356 L126.994384,280.950491 L166.801003,214.226141 C171.045337,207.111735 168.718684,197.903656 161.604278,193.659322 C159.280474,192.27298 156.624933,191.541054 153.919012,191.541094 L107.849661,191.541767 L107.849661,191.541767 L99.6934454,177.414787 L107.849661,163.287807 L160.861797,163.467982 C182.400778,163.541187 199.802227,181.061326 199.729022,202.600307 C199.705525,209.513724 197.844712,216.296645 194.337195,222.254264 Z" id="路径" fill="url(#linearGradient-20)" fill-rule="nonzero" transform="translate(164.252398, 229.395082) rotate(-180.000000) translate(-164.252398, -229.395082) "></path>
                    <circle id="椭圆形" fill="#3F27FF" cx="222.223986" cy="281.002356" r="14.5"></circle>
                    <circle id="椭圆形" fill="#FFFFFF" filter="url(#filter-21)" cx="222.223986" cy="281.002356" r="18"></circle>
                </g>
                <circle id="椭圆形" fill="#384BFF" cx="223" cy="350" r="10"></circle>
                <circle id="椭圆形" fill="#FFFFFF" filter="url(#filter-22)" cx="223" cy="350" r="13"></circle>
                <g id="编组-2" transform="translate(344.199929, 250.349347)">
                    <rect id="矩形" fill="url(#linearGradient-23)" x="1.13686838e-13" y="-3.75166564e-13" width="131.767742" height="71.2258065" rx="16"></rect>
                    <polygon id="路径" fill="#FFFFFF" fill-rule="nonzero" points="98.9877277 49.3950968 92.2925019 40.9904516 92.2925019 49.3950968 87.3066955 49.3950968 87.3066955 23.0415484 92.2925019 23.0415484 92.2925019 38.0345806 98.9165019 29.6655484 105.39805 29.6655484 96.7085019 39.5659355 105.469276 49.3950968"></polygon>
                    <path d="M36.3260901,49.7995381 L36.3260901,23.8371071 L31.5857586,23.8371071 L26.2984658,28.4315822 L26.2984658,33.5365546 L31.5857586,28.9420795 L31.5857586,49.7995381 L36.3260901,49.7995381 Z M60.2829962,49.7995381 L60.2829962,45.5332397 L50.2553719,45.5332397 L57.5117255,37.1100353 C57.9492945,36.5995381 58.3443222,36.1194276 58.6968083,35.6697038 C59.0492945,35.21998 59.3410072,34.7641789 59.5719465,34.3023005 C59.8028857,33.840422 59.9791288,33.3603115 60.1006758,32.861969 C60.2222227,32.3636264 60.2829962,31.7984331 60.2829962,31.1663889 C60.2829962,29.9995381 60.0885211,28.9481568 59.6995708,28.0122452 C59.3106205,27.0763336 58.7697365,26.2862784 58.0769188,25.6420795 C57.3841012,24.9978806 56.5515045,24.4995381 55.5791288,24.1470519 C54.6067531,23.7945657 53.5492945,23.6183226 52.4067531,23.6183226 C51.2885211,23.6183226 50.2492945,23.7884883 49.2890735,24.1288198 C48.3288525,24.4691513 47.4901785,24.9674939 46.7730514,25.6238474 C46.0559244,26.280201 45.4968083,27.0763336 45.0957034,28.0122452 C44.6945984,28.9481568 44.4940459,30.0116927 44.4940459,31.202853 L49.2343774,31.202853 C49.2343774,30.5708088 49.3255376,30.0420795 49.5078581,29.6166651 C49.6901785,29.1912508 49.9332724,28.8509193 50.2371398,28.5956706 C50.5410072,28.340422 50.8813387,28.1581016 51.2581343,28.0487093 C51.6349299,27.9393171 52.0178028,27.8846209 52.4067531,27.8846209 C53.4277476,27.8846209 54.2056481,28.182411 54.7404548,28.7779911 C55.2752614,29.3735712 55.5426647,30.1575491 55.5426647,31.1299248 C55.5426647,31.7376596 55.4393498,32.2724662 55.23272,32.7343447 C55.0260901,33.1962231 54.6796813,33.7067204 54.1934934,34.2658364 L44.4940459,45.5332397 L44.4940459,49.7995381 L60.2829962,49.7995381 Z M72.0608967,50.0183226 C73.1062006,50.0183226 74.108963,49.8481568 75.069184,49.5078253 C76.029405,49.1674939 76.8680791,48.6691513 77.5852061,48.0127977 C78.3023332,47.3564441 78.8736039,46.5481568 79.2990183,45.5879358 C79.7244327,44.6277148 79.9371398,43.5277148 79.9371398,42.2879358 L79.9371398,31.3487093 C79.9371398,30.1089303 79.7244327,29.0089303 79.2990183,28.0487093 C78.8736039,27.0884883 78.3023332,26.280201 77.5852061,25.6238474 C76.8680791,24.9674939 76.029405,24.4691513 75.069184,24.1288198 C74.108963,23.7884883 73.1062006,23.6183226 72.0608967,23.6183226 C70.9912835,23.6183226 69.9824437,23.7884883 69.0343774,24.1288198 C68.0863111,24.4691513 67.2476371,24.9674939 66.5183553,25.6238474 C65.7890735,26.280201 65.2117255,27.0884883 64.7863111,28.0487093 C64.3608967,29.0089303 64.1481896,30.1089303 64.1481896,31.3487093 L64.1481896,42.2879358 C64.1481896,43.5277148 64.3608967,44.6277148 64.7863111,45.5879358 C65.2117255,46.5481568 65.7890735,47.3564441 66.5183553,48.0127977 C67.2476371,48.6691513 68.0863111,49.1674939 69.0343774,49.5078253 C69.9824437,49.8481568 70.9912835,50.0183226 72.0608967,50.0183226 Z M72.0608967,45.7520242 C71.1371398,45.7520242 70.3774713,45.4420795 69.7818912,44.82219 C69.1863111,44.2023005 68.8885211,43.3453944 68.8885211,42.2514718 L68.8885211,31.4216375 C68.8885211,30.3277148 69.1863111,29.4647314 69.7818912,28.8326872 C70.3774713,28.200643 71.1371398,27.8846209 72.0608967,27.8846209 C72.9846537,27.8846209 73.7382448,28.200643 74.3216702,28.8326872 C74.9050956,29.4647314 75.1968083,30.3277148 75.1968083,31.4216375 L75.1968083,42.2514718 C75.1968083,43.3453944 74.9050956,44.2023005 74.3216702,44.82219 C73.7382448,45.4420795 72.9846537,45.7520242 72.0608967,45.7520242 Z" id="120" fill="#FFFFFF" fill-rule="nonzero"></path>
                </g>
            </g>
        </g>
    </g>
</svg>