<?xml version="1.0" encoding="UTF-8"?>
<svg width="184px" height="42px" viewBox="0 0 184 42" version="1.1" xmlns="http://www.w3.org/2000/svg" xmlns:xlink="http://www.w3.org/1999/xlink">
    <title>SherpaX logo_white</title>
    <defs>
        <linearGradient x1="4.80696801%" y1="64.3849621%" x2="129.243207%" y2="38.0232439%" id="linearGradient-1">
            <stop stop-color="#FFC859" offset="0%"></stop>
            <stop stop-color="#F02222" offset="100%"></stop>
        </linearGradient>
        <linearGradient x1="24.1200931%" y1="25.7884176%" x2="74.9944768%" y2="89.8619218%" id="linearGradient-2">
            <stop stop-color="#0097FF" offset="5%"></stop>
            <stop stop-color="#B930C0" offset="99%"></stop>
        </linearGradient>
        <linearGradient x1="53.6271297%" y1="112.324035%" x2="41.5208287%" y2="0.15557626%" id="linearGradient-3">
            <stop stop-color="#367DFF" offset="0%"></stop>
            <stop stop-color="#31FFA1" offset="100%"></stop>
        </linearGradient>
    </defs>
    <g id="2.0" stroke="none" stroke-width="1" fill="none" fill-rule="evenodd">
        <g id="菜单栏" transform="translate(-290.000000, -33.000000)" fill-rule="nonzero">
            <g id="SherpaX-logo_white" transform="translate(290.000000, 33.500000)">
                <g id="编组" transform="translate(0.000721, -0.000274)">
                    <path d="M0.702294386,39.7346841 L14.5657511,39.7346841 C14.8167854,39.7344267 15.0486338,39.6003312 15.1740395,39.3828646 C15.2994452,39.1653981 15.2993765,38.8975636 15.1738591,38.6801615 L8.2438883,26.674422 C8.11834812,26.4567542 7.88617747,26.3226409 7.63490151,26.3226409 C7.38362556,26.3226409 7.15145491,26.4567542 7.02591473,26.674422 L0.0941863703,38.6801615 C-0.0313309777,38.8975636 -0.0313997389,39.1653981 0.0940059652,39.3828646 C0.219411669,39.6003312 0.451260085,39.7344267 0.702294386,39.7346841 Z" id="路径" fill="url(#linearGradient-1)"></path>
                    <path d="M31.8704665,16.206528 L11.3072764,24.8026445 C11.1206196,24.8802733 10.9764139,25.0344974 10.9114781,25.2259402 C10.8465423,25.417383 10.8671617,25.6275144 10.9680716,25.8026834 L18.8049318,39.3831765 C18.9303845,39.6004673 19.1621343,39.7344267 19.4130399,39.7346848 L44.9447888,39.7346848 C45.196137,39.7350549 45.4285609,39.6012074 45.5543956,39.3836259 C45.6802302,39.1660444 45.6803289,38.8978355 45.5546544,38.6801615 L32.7509928,16.5035518 C32.5740914,16.197018 32.1968978,16.069781 31.8704665,16.206528 Z" id="路径" fill="url(#linearGradient-2)"></path>
                    <path d="M22.2233425,0.351781147 L10.544505,20.5863117 C10.3942878,20.8472667 10.426934,21.1749104 10.6256894,21.401094 C10.8244447,21.6272776 11.1451728,21.7017738 11.4232738,21.5863506 L30.2429866,13.7196123 C30.4293363,13.6416335 30.5731372,13.4872614 30.6377235,13.2958574 C30.7023097,13.1044534 30.6814394,12.8945155 30.5804339,12.7195734 L23.4413161,0.351781147 C23.3157759,0.134113352 23.0836052,-1.77174293e-14 22.8323293,-1.77174293e-14 C22.5810533,-1.77174293e-14 22.3488827,0.134113352 22.2233425,0.351781147 Z" id="路径" fill="url(#linearGradient-3)"></path>
                </g>
                <g id="编组-6" transform="translate(53.696289, 11.423995)" fill="#212121">
                    <path d="M-4.98302698e-14,19.6844213 L2.6960627,16.4575822 C4.2655438,17.7511299 6.20235025,18.6298987 8.21473082,18.6298987 C10.2271114,18.6298987 11.1304857,17.8565822 11.1304857,16.842483 C11.1304857,15.3468185 9.90020939,14.9865233 7.93176726,14.1622381 L5.22691687,13.0057784 C2.92630013,12.1270096 0.83307283,10.3694719 0.83307283,7.3447497 C0.83307283,3.90524858 3.92985411,1.1581981 8.44145317,1.1581981 C11.0018173,1.15321831 13.4676831,2.12498188 15.3362732,3.87537044 L12.9688701,6.83857887 C11.5083563,5.7840563 10.2130511,5.21637165 8.18485268,5.21637165 C6.63646204,5.21637165 5.58721208,5.85787288 5.58721208,7.07057383 C5.58721208,8.31842554 6.97918188,8.77538532 8.97047199,9.52233881 L11.5083563,10.604982 C14.227267,11.6243538 15.9443813,13.3203776 15.9443813,16.2484353 C15.9443813,19.7002391 13.0479593,22.6898106 7.90891927,22.6898106 C4.99434216,22.6859112 2.18164604,21.6170867 -4.98302698e-14,19.6844213 L-4.98302698e-14,19.6844213 Z" id="路径"></path>
                    <path d="M18.0850621,2.21467866e-15 L22.77593,2.21467866e-15 L22.77593,5.44836661 L22.5017541,8.49242176 L22.6195091,8.49242176 C23.7900292,7.27620573 25.4913256,6.13204874 27.8587288,6.13204874 C31.4071972,6.13204874 32.9801934,8.57326849 32.9801934,12.5593638 L32.9801934,22.3189702 L28.291083,22.3189702 L28.291083,13.151654 C28.291083,11.0426088 27.6847325,10.114629 25.9728909,10.114629 C24.7215241,10.114629 23.8638458,10.6928589 22.77593,11.7596842 L22.77593,22.3049099 L18.0850621,22.3049099 L18.0850621,2.21467866e-15 Z" id="路径"></path>
                    <path d="M34.9380903,14.3959906 C34.9380903,9.22355741 38.9277007,6.11974598 43.1598513,6.11974598 C48.0352606,6.11974598 50.6012655,9.4098564 50.6012655,13.7052783 C50.5903054,14.408832 50.5244911,15.1104594 50.4044213,15.8037782 L38.4144997,15.8037782 L38.4144997,12.6542708 L47.2338234,12.6542708 L46.4956576,13.5488575 C46.4956576,11.0109732 45.3936816,9.68227473 43.3162721,9.68227473 C40.9998375,9.68227473 39.481325,11.2517558 39.481325,14.3942331 C39.481325,17.6720407 41.2652257,19.1132216 44.339159,19.1132216 C45.7733097,19.1132216 47.0088586,18.7248058 48.4113736,18.0165181 L49.9632794,20.8391235 C48.0840827,22.0189551 45.9163325,22.658639 43.6976578,22.6880539 C38.7712798,22.6898106 34.9380903,19.6492706 34.9380903,14.3959906 Z" id="路径"></path>
                    <path d="M54.2569438,6.50288918 L58.1112238,6.50288918 L58.4803067,9.95996567 L58.5910315,9.95996567 C60.1464523,7.38165799 62.4769472,6.11974598 64.9990137,6.11974598 C66.047201,6.08477019 67.0883715,6.30301207 68.0342811,6.7559746 L67.0834533,10.6963739 C66.0922021,10.3923199 65.4507008,10.232384 64.2854534,10.232384 C62.3275565,10.232384 60.3134184,11.2499983 58.9478117,14.086664 L58.9478117,22.3066674 L54.2569438,22.3066674 L54.2569438,6.50288918 Z" id="路径"></path>
                    <path d="M70.2733841,6.50288918 L74.0942708,6.50288918 L74.4317181,8.1110361 L74.5512306,8.1110361 C75.8236879,6.9475462 77.5636501,6.12150352 79.2596739,6.12150352 C83.2035883,6.12150352 85.5868093,9.28507123 85.5868093,14.1604806 C85.5868093,19.5772115 82.2738509,22.6915682 78.7324126,22.6915682 C77.3439579,22.6915682 75.9730786,22.0729149 74.8482545,20.9832416 L74.7375296,20.9832416 L74.9554643,23.5510041 L74.9554643,28.1786006 L70.2733841,28.1786006 L70.2733841,6.50288918 Z M80.7940042,14.2061766 C80.7940042,11.3712684 79.8642668,9.95996567 77.8782493,9.95996567 C76.8764529,9.95996567 75.9449579,10.3852898 74.9624944,11.4275096 L74.9624944,17.8038561 C75.7063291,18.4741238 76.6696284,18.8491917 77.6708599,18.8583786 C79.3985194,18.8495909 80.7940042,17.4751965 80.7940042,14.204419 L80.7940042,14.2061766 Z" id="形状"></path>
                    <path d="M87.3232565,17.9268837 C87.3232565,14.3854454 90.2513141,12.5822118 97.7190915,12.1270096 C97.5538829,10.7209795 96.4888151,9.84221065 94.3674672,9.84221065 C92.8436821,9.84221065 91.3269272,10.4292282 89.5500566,11.3220573 L87.8768808,8.2604268 C90.0685302,7.01081755 92.5888392,6.12326106 95.2725991,6.12326106 C99.7174118,6.12326106 102.409959,8.43266548 102.409959,13.2764392 L102.409959,22.3101825 L98.5785274,22.3101825 L98.2410802,20.5297969 L98.1215676,20.5297969 C96.5257234,21.7301951 94.5484936,22.6933257 92.5202952,22.6933257 C89.3215767,22.6898106 87.3232565,20.582523 87.3232565,17.9268837 Z M97.7190915,17.5507706 L97.7190915,14.9601602 C93.0686469,15.1939127 91.8207952,16.2009817 91.8207952,17.5507706 C91.8207952,18.5666274 92.6784736,19.0604955 94.0018994,19.0604955 C95.4096871,19.0604955 96.6012976,18.4154791 97.7190915,17.5490131 L97.7190915,17.5507706 Z" id="形状"></path>
                    <path d="M120.138241,11.8704091 L117.097701,8.64005492 L111.447218,2.63630642 C111.328608,2.50555678 111.161475,2.4292987 110.984985,2.42540191 L105.8354,2.42540191 C105.246625,2.42540191 104.956631,3.18290062 105.367895,3.6258001 L113.357661,12.1270096 C113.485909,12.2673292 113.485909,12.4823155 113.357661,12.6226352 L105.37141,21.1080268 C104.953116,21.5491687 105.248383,22.3066674 105.838915,22.3066674 L110.984985,22.3066674 C111.16261,22.3059975 111.33196,22.2315089 111.45249,22.1010355 L117.101216,16.0955295 L120.141756,12.8651754 C120.397738,12.5824671 120.396214,12.1513012 120.138241,11.8704091 L120.138241,11.8704091 Z" id="路径"></path>
                    <path d="M120.31048,8.64005492 L121.911597,10.2411717 C122.117452,10.4467708 122.450938,10.4467708 122.656793,10.2411717 L129.272164,3.6258001 C129.473459,3.42472966 129.533714,3.12215477 129.424805,2.85930975 C129.315895,2.59646472 129.059296,2.42517801 128.774781,2.42540169 L123.307082,2.42540169 C123.120322,2.42572104 122.941364,2.5003394 122.809698,2.63279135 L118.929055,6.51167687 C118.829779,6.61060965 118.773976,6.744998 118.773976,6.88515361 C118.773976,7.02530923 118.829779,7.15969758 118.929055,7.25863036 L120.31048,8.64005492 Z" id="路径"></path>
                    <path d="M122.656793,14.4961703 C122.450938,14.2905711 122.117452,14.2905711 121.911597,14.4961703 L120.31048,16.0955295 L118.929055,17.4787116 C118.723456,17.6845667 118.723456,18.0180524 118.929055,18.2239075 L122.807941,22.1010355 C122.939464,22.2324128 123.117668,22.3063486 123.303567,22.3066674 L128.773024,22.3066674 C129.056448,22.3054774 129.311438,22.1342088 129.419739,21.8722894 C129.52804,21.61037 129.468468,21.3090328 129.268649,21.1080268 L122.656793,14.4961703 Z" id="路径"></path>
                </g>
            </g>
        </g>
    </g>
</svg>