<?xml version="1.0" encoding="UTF-8"?>
<svg width="148px" height="33px" viewBox="0 0 148 33" version="1.1" xmlns="http://www.w3.org/2000/svg" xmlns:xlink="http://www.w3.org/1999/xlink">
    <title>SherpaX logo_white</title>
    <defs>
        <linearGradient x1="4.80696801%" y1="64.3849621%" x2="129.243207%" y2="38.0232439%" id="linearGradient-1">
            <stop stop-color="#FFC859" offset="0%"></stop>
            <stop stop-color="#F02222" offset="100%"></stop>
        </linearGradient>
        <linearGradient x1="24.1200931%" y1="25.7884176%" x2="74.9944768%" y2="89.8619218%" id="linearGradient-2">
            <stop stop-color="#0097FF" offset="5%"></stop>
            <stop stop-color="#B930C0" offset="99%"></stop>
        </linearGradient>
        <linearGradient x1="53.6271297%" y1="112.324035%" x2="41.5208287%" y2="0.15557626%" id="linearGradient-3">
            <stop stop-color="#367DFF" offset="0%"></stop>
            <stop stop-color="#31FFA1" offset="100%"></stop>
        </linearGradient>
    </defs>
    <g id="2.0" stroke="none" stroke-width="1" fill="none" fill-rule="evenodd">
        <g id="sherpax网站" transform="translate(-60.000000, -21.000000)" fill-rule="nonzero">
            <g id="SherpaX-logo_white" transform="translate(60.000000, 21.000000)">
                <g id="编组" transform="translate(0.000578, -0.000219)">
                    <path d="M0.563298622,31.8705278 L11.6829462,31.8705278 C11.8842966,31.8703214 12.0702584,31.7627656 12.1708442,31.5883393 C12.27143,31.413913 12.2713749,31.1990875 12.1706995,31.0247129 L6.61228541,21.3951093 C6.51159172,21.2205216 6.32537151,21.1129515 6.12382726,21.1129515 C5.922283,21.1129515 5.73606279,21.2205216 5.63536911,21.3951093 L0.0755453178,31.0247129 C-0.025130055,31.1990875 -0.0251852073,31.413913 0.0754006179,31.5883393 C0.175986443,31.7627656 0.361948193,31.8703214 0.563298622,31.8705278 Z" id="路径" fill="url(#linearGradient-1)"></path>
                    <path d="M25.56277,12.998986 L9.06937792,19.8937878 C8.91966362,19.9560525 8.80399864,20.0797531 8.75191474,20.2333062 C8.69983084,20.3868592 8.71636928,20.5554022 8.79730743,20.6959023 L15.0831224,31.5885895 C15.1837459,31.7628748 15.3696286,31.8703214 15.5708757,31.8705285 L36.049466,31.8705285 C36.2510683,31.8708252 36.4374916,31.7634685 36.5384215,31.5889499 C36.6393513,31.4144314 36.6394305,31.1993056 36.538629,31.0247129 L26.2690255,13.2372239 C26.1271358,12.9913582 25.8245951,12.8893035 25.56277,12.998986 Z" id="路径" fill="url(#linearGradient-2)"></path>
                    <path d="M17.8249726,0.282157795 L8.45757175,16.5119375 C8.33708502,16.7212452 8.36326997,16.9840427 8.52268834,17.1654608 C8.68210671,17.3468789 8.93935731,17.4066311 9.16241756,17.3140521 L24.2573955,11.0042723 C24.4068635,10.9417269 24.5222038,10.8179076 24.5740074,10.6643856 C24.6258109,10.5108636 24.6090711,10.342476 24.5280563,10.2021578 L18.8018889,0.282157795 C18.7011952,0.107570085 18.514975,-1.42108547e-14 18.3134308,-1.42108547e-14 C18.1118865,-1.42108547e-14 17.9256663,0.107570085 17.8249726,0.282157795 Z" id="路径" fill="url(#linearGradient-3)"></path>
                </g>
                <g id="编组-6" transform="translate(43.068899, 9.162996)" fill="#FFFFFF">
                    <path d="M-3.99680289e-14,15.7885463 L2.16246696,13.2003524 C3.42132159,14.2378855 4.97480176,14.9427313 6.58889868,14.9427313 C8.20299559,14.9427313 8.92757709,14.322467 8.92757709,13.5090749 C8.92757709,12.3094273 7.94079295,12.0204405 6.36193833,11.3592952 L4.19242291,10.4317181 C2.34713656,9.72687225 0.668193833,8.31718062 0.668193833,5.89110132 C0.668193833,3.1323348 3.15207048,0.928971391 6.7707489,0.928971391 C8.82437428,0.924977183 10.8022041,1.70441255 12.3009692,3.10837004 L10.4021145,5.48511013 C9.23066079,4.63929515 8.19171806,4.18396476 6.56493392,4.18396476 C5.32299559,4.18396476 4.48140969,4.6985022 4.48140969,5.67118943 C4.48140969,6.67207048 5.59788546,7.03859031 7.19506608,7.63770925 L9.23066079,8.5060793 C11.4114537,9.32370044 12.7887225,10.6840529 12.7887225,13.0325991 C12.7887225,15.8012335 10.4655507,18.1991189 6.34361233,18.1991189 C4.00587861,18.1959913 1.74986193,17.338705 -3.99680289e-14,15.7885463 L-3.99680289e-14,15.7885463 Z" id="路径"></path>
                    <path d="M14.5057269,1.77635684e-15 L18.2681938,1.77635684e-15 L18.2681938,4.37004405 L18.0482819,6.81162996 L18.1427313,6.81162996 C19.0815859,5.83612335 20.4461674,4.9184141 22.345022,4.9184141 C25.1911894,4.9184141 26.4528634,6.87647577 26.4528634,10.0736564 L26.4528634,17.901674 L22.6918062,17.901674 L22.6918062,10.5487225 C22.6918062,8.85709251 22.2054626,8.11277533 20.8324229,8.11277533 C19.8287225,8.11277533 19.140793,8.57656388 18.2681938,9.4322467 L18.2681938,17.8903965 L14.5057269,17.8903965 L14.5057269,1.77635684e-15 Z" id="路径"></path>
                    <path d="M28.0232599,11.5467841 C28.0232599,7.39806167 31.2232599,4.90854626 34.6177974,4.90854626 C38.5282819,4.90854626 40.5864317,7.54748899 40.5864317,10.9927753 C40.5776408,11.557084 40.5248523,12.1198476 40.4285463,12.6759471 L30.81163,12.6759471 L30.81163,10.1497797 L37.8854626,10.1497797 L37.2933921,10.8673128 C37.2933921,8.83171806 36.4095154,7.76599119 34.7432599,7.76599119 C32.8852863,7.76599119 31.6673128,9.02484581 31.6673128,11.5453744 C31.6673128,14.1744493 33.0981498,15.3303965 35.5637004,15.3303965 C36.7140088,15.3303965 37.705022,15.0188546 38.8299559,14.4507489 L40.0747137,16.7147137 C38.5674413,17.6610369 36.828725,18.1741167 35.049163,18.1977099 C31.0977974,18.1991189 28.0232599,15.7603524 28.0232599,11.5467841 Z" id="路径"></path>
                    <path d="M43.5185903,5.21585903 L46.6100441,5.21585903 L46.9060793,7.98872247 L46.9948899,7.98872247 C48.242467,5.92070485 50.1117181,4.90854626 52.1346256,4.90854626 C52.9753592,4.88049276 53.8104647,5.05554093 54.569163,5.41885463 L53.8065198,8.57938326 C53.0114537,8.33550661 52.4969163,8.20722467 51.5622907,8.20722467 C49.9918943,8.20722467 48.3763877,9.02343612 47.2810573,11.2986784 L47.2810573,17.8918062 L43.5185903,17.8918062 L43.5185903,5.21585903 Z" id="路径"></path>
                    <path d="M56.3651101,5.21585903 L59.4297797,5.21585903 L59.7004405,6.50572687 L59.7962996,6.50572687 C60.8169163,5.57251101 62.212511,4.90995595 63.5728634,4.90995595 C66.7362115,4.90995595 68.6477533,7.44740088 68.6477533,11.3578855 C68.6477533,15.7025551 65.9904846,18.2005286 63.1499559,18.2005286 C62.0362996,18.2005286 60.9367401,17.7043172 60.0345374,16.8303084 L59.9457269,16.8303084 L60.1205286,18.8898678 L60.1205286,22.6015859 L56.3651101,22.6015859 L56.3651101,5.21585903 Z M64.8035242,11.3945374 C64.8035242,9.12070485 64.0577974,7.98872247 62.4648458,7.98872247 C61.6613216,7.98872247 60.914185,8.32986784 60.1261674,9.16581498 L60.1261674,14.2801762 C60.7227848,14.8177868 61.4954311,15.1186225 62.2985022,15.1259912 C63.6842291,15.1189427 64.8035242,14.0165639 64.8035242,11.3931278 L64.8035242,11.3945374 Z" id="形状"></path>
                    <path d="M70.0405286,14.3788546 C70.0405286,11.538326 72.3890749,10.0919824 78.3788546,9.72687225 C78.2463436,8.59911894 77.3920705,7.89427313 75.6905727,7.89427313 C74.46837,7.89427313 73.2518062,8.36511013 71.8266079,9.08123348 L70.4845815,6.62555066 C72.242467,5.62325991 74.2639648,4.91136564 76.4165639,4.91136564 C79.981674,4.91136564 82.1413216,6.76370044 82.1413216,10.6488106 L82.1413216,17.8946256 L79.0681938,17.8946256 L78.797533,16.4666079 L78.701674,16.4666079 C77.421674,17.4294273 75.8357709,18.2019383 74.2089868,18.2019383 C71.643348,18.1991189 70.0405286,16.5088987 70.0405286,14.3788546 Z M78.3788546,14.0771806 L78.3788546,11.9992952 C74.6488106,12.1867841 73.6479295,12.9945374 73.6479295,14.0771806 C73.6479295,14.8919824 74.335859,15.2881057 75.3973568,15.2881057 C76.5265198,15.2881057 77.4822907,14.7707489 78.3788546,14.0757709 L78.3788546,14.0771806 Z" id="形状"></path>
                    <path d="M96.3608811,9.52105727 L93.9221145,6.93004405 L89.3899559,2.11453744 C89.2948207,2.00966533 89.1607666,1.9485 89.019207,1.94537445 L84.8888106,1.94537445 C84.4165639,1.94537445 84.1839648,2.55295154 84.5138326,2.90819383 L90.9222907,9.72687225 C91.025156,9.83942029 91.025156,10.0118572 90.9222907,10.1244053 L84.516652,16.9303965 C84.1811454,17.2842291 84.4179736,17.8918062 84.89163,17.8918062 L89.019207,17.8918062 C89.1616767,17.8912688 89.2975095,17.8315228 89.394185,17.7268722 L93.9249339,12.9099559 L96.3637004,10.3189427 C96.569019,10.0921872 96.5677969,9.74635618 96.3608811,9.52105727 L96.3608811,9.52105727 Z" id="路径"></path>
                    <path d="M96.4990308,6.93004405 L97.7832599,8.21427313 C97.9483729,8.37918076 98.2158562,8.37918076 98.3809692,8.21427313 L103.687048,2.90819383 C103.848503,2.74691858 103.896833,2.50422831 103.809479,2.29340469 C103.722124,2.08258108 103.51631,1.94519486 103.288106,1.94537427 L98.9025551,1.94537427 C98.7527581,1.94563042 98.6092192,2.00548056 98.5036123,2.11171806 L95.3910132,5.22290749 C95.3113849,5.30225982 95.2666269,5.41005048 95.2666269,5.52246696 C95.2666269,5.63488344 95.3113849,5.7426741 95.3910132,5.82202643 L96.4990308,6.93004405 Z" id="路径"></path>
                    <path d="M98.3809692,11.6271366 C98.2158562,11.4622289 97.9483729,11.4622289 97.7832599,11.6271366 L96.4990308,12.9099559 L95.3910132,14.0193833 C95.2261056,14.1844962 95.2261056,14.4519795 95.3910132,14.6170925 L98.5022026,17.7268722 C98.607695,17.8322477 98.7506298,17.8915505 98.8997357,17.8918062 L103.286696,17.8918062 C103.514026,17.8908517 103.71855,17.7534799 103.805416,17.5433988 C103.892282,17.3333176 103.8445,17.0916201 103.684229,16.9303965 L98.3809692,11.6271366 Z" id="路径"></path>
                </g>
            </g>
        </g>
    </g>
</svg>