<?xml version="1.0" encoding="UTF-8"?>
<svg width="24px" height="25px" viewBox="0 0 24 25" version="1.1" xmlns="http://www.w3.org/2000/svg" xmlns:xlink="http://www.w3.org/1999/xlink">
    <title>wechat@2x</title>
    <g id="2.0" stroke="none" stroke-width="1" fill="none" fill-rule="evenodd">
        <g id="sherpax网站" transform="translate(-946.000000, -3892.000000)" fill="#000000" fill-rule="nonzero">
            <g id="编组-30" transform="translate(0.000000, 3864.313317)">
                <g id="编组-25" transform="translate(802.000000, 28.000000)">
                    <g id="wechat" transform="translate(144.000000, 0.000000)">
                        <path d="M12,24.0000054 C5.49006963,24.0021093 0.165723351,18.8132919 1.6359375e-05,12.3054705 L1.6359375e-05,11.7272895 C0.149824028,5.1374644 5.58691476,-0.0979139624 12.1776942,0.00139513187 C18.7684737,0.100704226 24.0453598,5.49751954 23.9965551,12.0888665 C23.9477504,18.6802134 18.5915274,23.9982974 12,24.0000054 L12,24.0000054 Z M9.45818529,4.35275407 C6.19305657,4.20919068 3.42924356,6.73861671 3.28364824,10.0036555 C3.32394991,11.8167821 4.2488551,13.4954646 5.76000851,14.4981948 L5.13819117,16.4945557 L7.28727916,15.3272846 C7.99631111,15.5176359 8.72454809,15.6274204 9.45818529,15.6545568 C9.64363957,15.6545568 9.84000295,15.6436477 10.0254572,15.6327387 C9.90422515,15.1771217 9.84189912,14.7078433 9.84000295,14.236377 C9.83420435,12.8476052 10.3803369,11.5134118 11.3582551,10.5273101 C12.3361734,9.54120847 13.6657695,8.9839768 15.0545413,8.9782023 L15.0872685,8.9782023 C15.2842861,8.98187866 15.4809496,8.99644634 15.6763586,9.02183862 C14.9596849,6.19674996 12.3710528,4.25300518 9.45818529,4.35275407 L9.45818529,4.35275407 Z M15.4799953,9.33820181 C13.6593789,9.18315064 11.9066616,10.0667771 10.9486172,11.6226806 C9.99057275,13.1785842 9.99057275,15.1414427 10.9486172,16.6973462 C11.9066616,18.2532498 13.6593789,19.1368762 15.4799953,18.981825 C16.1101939,18.9497216 16.7335707,18.836047 17.3345382,18.6436437 L19.025445,19.6472787 L18.5563547,17.97819 C19.8210439,17.1015466 20.6164208,15.6955773 20.7163518,14.1600134 C20.552701,11.4055839 18.2385498,9.27463632 15.4799953,9.33820181 L15.4799953,9.33820181 Z M17.170902,13.3309236 C16.8514655,13.2699867 16.6203928,12.9906669 16.6203928,12.66547 C16.6203928,12.3402731 16.8514655,12.0609532 17.170902,12.0000164 C17.4327102,11.96024 17.6935134,12.0776728 17.8372737,12.3000658 C17.981034,12.5224589 17.981034,12.8084811 17.8372737,13.0308742 C17.6935134,13.2532672 17.4327102,13.3706999 17.170902,13.3309236 Z M13.7781794,13.3309236 C13.6081413,13.3475349 13.4386845,13.2940701 13.3089674,13.182884 C13.1792503,13.071698 13.1004976,12.9124117 13.0909076,12.7418335 C13.0382224,12.3904644 13.2754676,12.0612262 13.6254523,12.0000164 L13.7781794,12.0000164 C14.0399876,11.96024 14.3007907,12.0776728 14.444551,12.3000658 C14.5883113,12.5224589 14.5883113,12.8084811 14.444551,13.0308742 C14.3007907,13.2532672 14.0399876,13.3706999 13.7781794,13.3309236 Z M11.7709094,8.84729339 C11.2859097,8.86306061 10.8757321,8.49148793 10.8436379,8.00729454 C10.8763452,7.52500193 11.2879763,7.1569553 11.7709094,7.17820477 C12.2032563,7.21653155 12.5347456,7.57870667 12.5347456,8.01274908 C12.5347456,8.44679149 12.2032563,8.80896661 11.7709094,8.84729339 Z M7.45091529,8.84729339 C7.13238407,8.87990962 6.82306625,8.72836061 6.65363044,8.45666691 C6.48419463,8.18497322 6.48419463,7.84052494 6.65363044,7.56883124 C6.82306625,7.29713755 7.13238407,7.14558854 7.45091529,7.17820477 C7.89332271,7.1941982 8.23956418,7.56482287 8.2254597,8.00729454 C8.23968486,8.45171431 7.89502812,8.82549697 7.45091529,8.84729339 L7.45091529,8.84729339 Z" id="形状"></path>
                    </g>
                </g>
            </g>
        </g>
    </g>
</svg>